<?xml version="1.0" encoding="UTF-8" standalone="no"?>
<!-- Created with Inkscape (http://www.inkscape.org/) -->

<svg
   version="1.1"
   id="svg148"
   width="438.93442"
   height="250"
   viewBox="0 0 438.93442 250"
   sodipodi:docname="logo.svg"
   inkscape:version="1.2.2 (732a01da63, 2022-12-09, custom)"
   xmlns:inkscape="http://www.inkscape.org/namespaces/inkscape"
   xmlns:sodipodi="http://sodipodi.sourceforge.net/DTD/sodipodi-0.dtd"
   xmlns="http://www.w3.org/2000/svg"
   xmlns:svg="http://www.w3.org/2000/svg">
  <sodipodi:namedview
     id="namedview2425"
     pagecolor="#505050"
     bordercolor="#ffffff"
     borderopacity="1"
     inkscape:showpageshadow="0"
     inkscape:pageopacity="0"
     inkscape:pagecheckerboard="1"
     inkscape:deskcolor="#505050"
     showgrid="false"
     inkscape:zoom="0.586"
     inkscape:cx="157.84983"
     inkscape:cy="72.525597"
     inkscape:window-width="1360"
     inkscape:window-height="737"
     inkscape:window-x="0"
     inkscape:window-y="0"
     inkscape:window-maximized="1"
     inkscape:current-layer="g1004" />
  <defs
     id="defs152">
    <clipPath
       clipPathUnits="userSpaceOnUse"
       id="clipPath304">
      <path
         d="M 0,576 H 768 V 0 H 0 Z"
         id="path302" />
    </clipPath>
    <clipPath
       clipPathUnits="userSpaceOnUse"
       id="clipPath330">
      <path
         d="M 0,576 H 768 V 0 H 0 Z"
         id="path328" />
    </clipPath>
  </defs>
  <g
     id="g156"
     transform="matrix(1.3333333,0,0,-1.3333333,-292.53281,509)"
     inkscape:label="D55EGE">
    <g
       id="g1004"
       transform="matrix(1.4310738,0,0,1.4310738,-166.29225,-112.75726)"
       inkscape:label="logo">
      <path
         id="text322"
         style="font-variant:normal;font-weight:normal;font-stretch:normal;font-size:25px;font-family:'Aristotelica Display Trial';-inkscape-font-specification:AristotelicaDisplayTrial-Regula;writing-mode:lr-tb;fill:#ee750f;fill-opacity:1;fill-rule:nonzero;stroke:none"
         d="m 37.274908,-16.125482 c -0.791666,0 -1.541668,0.105143 -2.25,0.313476 -0.708333,0.2 -1.366277,0.482943 -1.97461,0.84961 -0.599999,0.366666 -1.142644,0.804167 -1.625976,1.3125 -0.483333,0.508333 -0.894662,1.062598 -1.236329,1.662597 -0.333333,0.6 -0.591569,1.241473 -0.774902,1.924805 -0.183333,0.6749995 -0.275391,1.3707367 -0.275391,2.0874026 0,0.7499993 0.09544,1.4704435 0.28711,2.1621094 0.191666,0.691666 0.462988,1.3428392 0.812988,1.951172 0.35,0.5999994 0.771029,1.1494146 1.262695,1.6494141 0.491667,0.4916661 1.037696,0.9126957 1.637696,1.26269531 0.599999,0.34999965 1.244857,0.62470725 1.936523,0.82470705 0.691666,0.19166648 1.41211,0.28710938 2.16211,0.28710938 1.058332,0 2.084506,-0.19088581 3.076172,-0.57421876 0.991665,-0.38333295 1.89476,-0.98362718 2.711425,-1.80029298 0.1,-0.1 0.150879,-0.2250002 0.150879,-0.375 0,-0.1583332 -0.05426,-0.2915692 -0.162597,-0.3999024 -0.108333,-0.091667 -0.229948,-0.1376953 -0.363282,-0.1376953 -0.158333,0 -0.291569,0.054264 -0.399902,0.1625976 -0.716666,0.7083327 -1.49961,1.2296554 -2.349609,1.5629884 -0.849999,0.3249996 -1.733237,0.48294268 -2.649903,0.47460935 -0.999999,0 -1.929265,-0.18750035 -2.787597,-0.56250005 -0.858333,-0.3833329 -1.603484,-0.8964199 -2.236817,-1.5380859 -0.624999,-0.6499994 -1.116765,-1.4000009 -1.475098,-2.2500001 -0.349999,-0.8583325 -0.525879,-1.7580414 -0.525879,-2.6997071 0,-0.974999 0.184115,-1.8911793 0.550782,-2.7495116 0.366666,-0.858333 0.866667,-1.608334 1.5,-2.25 0.633332,-0.641666 1.378484,-1.146518 2.236816,-1.513184 0.858333,-0.374999 1.775978,-0.5625 2.750977,-0.5625 0.908332,0 1.79157,0.179265 2.649902,0.537598 0.866666,0.349999 1.652996,0.874708 2.361328,1.574707 0.108334,0.108333 0.238184,0.162598 0.388184,0.162598 0.15,0 0.278386,-0.05426 0.386719,-0.162598 0.1,-0.108333 0.150879,-0.233334 0.150879,-0.375 0,-0.141667 -0.05427,-0.270052 -0.162598,-0.386719 -0.799999,-0.799999 -1.699708,-1.405144 -2.699707,-1.813477 -0.991666,-0.408332 -2.012989,-0.612304 -3.062988,-0.612304 z m 72.925782,0 c -0.79167,0 -1.54167,0.105143 -2.25,0.313476 -0.70833,0.2 -1.36774,0.482943 -1.97607,0.84961 -0.6,0.366666 -1.14118,0.804167 -1.62452,1.3125 -0.48333,0.508333 -0.89612,1.062598 -1.23779,1.662597 -0.33333,0.6 -0.59157,1.241473 -0.7749,1.924805 -0.18333,0.6749995 -0.27539,1.3707367 -0.27539,2.0874026 0,0.7499993 0.0969,1.4704435 0.28857,2.1621094 0.19167,0.691666 0.46153,1.3428392 0.81153,1.951172 0.35,0.5999994 0.77103,1.1494146 1.26269,1.6494141 0.49167,0.4916661 1.0377,0.9126957 1.6377,1.26269531 0.6,0.34999965 1.24632,0.62470725 1.93799,0.82470705 0.69166,0.19166648 1.41211,0.28710938 2.1621,0.28710938 1.05834,0 2.08305,-0.19088581 3.07471,-0.57421876 0.99167,-0.38333295 1.89623,-0.98362718 2.71289,-1.80029298 0.1,-0.1 0.14942,-0.2250002 0.14942,-0.375 0,-0.1583332 -0.0543,-0.2915692 -0.1626,-0.3999024 -0.10833,-0.091667 -0.22848,-0.1376953 -0.36182,-0.1376953 -0.15833,0 -0.29157,0.054264 -0.3999,0.1625976 -0.71667,0.7083327 -1.49961,1.2296554 -2.34961,1.5629884 -0.85,0.3249996 -1.7347,0.48294268 -2.65137,0.47460935 -1,0 -1.9278,-0.18750035 -2.78613,-0.56250005 -0.85833,-0.3833329 -1.60495,-0.8964199 -2.23828,-1.5380859 -0.625,-0.6499994 -1.11677,-1.4000009 -1.4751,-2.2500001 -0.35,-0.8583325 -0.52441,-1.7580414 -0.52441,-2.6997071 0,-0.974999 0.18265,-1.8911793 0.54931,-2.7495116 0.36667,-0.858333 0.86667,-1.608334 1.5,-2.25 0.63334,-0.641666 1.37995,-1.146518 2.23829,-1.513184 0.85833,-0.374999 1.77451,-0.5625 2.74951,-0.5625 0.90833,0 1.79157,0.179265 2.6499,0.537598 0.86667,0.349999 1.65446,0.874708 2.36279,1.574707 0.10834,0.108333 0.23672,0.162598 0.38672,0.162598 0.15,0 0.27985,-0.05426 0.38818,-0.162598 0.1,-0.108333 0.14942,-0.233334 0.14942,-0.375 0,-0.141667 -0.0543,-0.270052 -0.1626,-0.386719 -0.8,-0.799999 -1.69971,-1.405144 -2.69971,-1.813477 -0.99166,-0.408332 -2.01152,-0.612304 -3.06152,-0.612304 z m 61.19971,0 c -0.76667,0 -1.5002,0.100293 -2.2002,0.300293 -0.69166,0.191666 -1.33799,0.466374 -1.93798,0.824707 -0.6,0.358333 -1.14603,0.787598 -1.6377,1.287597 -0.49167,0.5 -0.9127,1.054265 -1.2627,1.662598 -0.34166,0.6 -0.60813,1.246323 -0.7998,1.937989 -0.18333,0.6833322 -0.27393,1.3955407 -0.27393,2.1372066 0,1.1249989 0.21221,2.1792654 0.63721,3.1625977 0.425,0.9833324 0.99912,1.8452482 1.72412,2.5869142 0.73334,0.7333326 1.58363,1.31715539 2.5503,1.75048829 0.97499,0.42499958 2.01279,0.63720705 3.11279,0.63720705 1.05833,0 2.08789,-0.18750039 3.08789,-0.56250001 1.00833,-0.37499963 1.9376,-0.97044353 2.7876,-1.78710943 0.0583,-0.058333 0.10436,-0.1208334 0.13769,-0.1875 0.0333,-0.066667 0.0498,-0.1538738 0.0498,-0.262207 v -4.0122072 c 0,-0.1666665 -0.0543,-0.296517 -0.1626,-0.3881836 -0.10833,-0.1 -0.24642,-0.149414 -0.41309,-0.149414 h -4.125 c -0.15,0 -0.27838,0.054264 -0.38672,0.1625976 -0.1,0.1083332 -0.15087,0.2333335 -0.15087,0.375 0,0.1499999 0.0509,0.2783856 0.15087,0.3867188 0.10834,0.1083332 0.23672,0.1625977 0.38672,0.1625977 h 3.61231 v 3.2753907 c -0.70833,0.6583326 -1.49128,1.1418623 -2.34961,1.4501953 -0.85,0.2999997 -1.71677,0.44970705 -2.6001,0.44970705 -0.65,0 -1.275,-0.0872072 -1.875,-0.26220705 -0.6,-0.1749998 -1.15765,-0.4167646 -1.67432,-0.7250977 -0.51666,-0.3166663 -0.98857,-0.6916671 -1.41357,-1.125 -0.41667,-0.4333329 -0.7752,-0.9134771 -1.0752,-1.4384766 -0.29166,-0.5249995 -0.52034,-1.0826504 -0.68701,-1.6743164 -0.15833,-0.5916661 -0.2373,-1.2035814 -0.2373,-1.8369141 0,-0.999999 0.1875,-1.9292653 0.5625,-2.7875979 0.375,-0.866666 0.88323,-1.613282 1.5249,-2.238281 0.64167,-0.633333 1.38828,-1.128484 2.23828,-1.486817 0.85,-0.366666 1.74971,-0.550781 2.69971,-0.550781 0.90833,0 1.7998,0.179265 2.6748,0.537598 0.875,0.358333 1.6628,0.883041 2.3628,1.574707 0.11666,0.1 0.24505,0.150879 0.38672,0.150879 0.15,0 0.27985,-0.05088 0.38818,-0.150879 0.1,-0.108333 0.14941,-0.233334 0.14941,-0.375 0.008,-0.141667 -0.0459,-0.270052 -0.16259,-0.386719 -0.80834,-0.808332 -1.70805,-1.413477 -2.69971,-1.813477 -0.98333,-0.408332 -2.01628,-0.612304 -3.09961,-0.612304 z m 52.39893,0 c -0.75,0 -1.47383,0.100293 -2.17383,0.300293 -0.69167,0.191666 -1.33799,0.462988 -1.93799,0.812988 -0.6,0.35 -1.14603,0.774415 -1.6377,1.274414 -0.49166,0.491666 -0.91269,1.042546 -1.26269,1.650879 -0.35,0.599999 -0.61986,1.244858 -0.81152,1.936524 -0.19167,0.6916656 -0.28858,1.4135746 -0.28858,2.1635739 0,1.1249988 0.20882,2.1826508 0.62549,3.1743164 0.425,0.9833324 1.00397,1.8452482 1.7373,2.5869142 0.73334,0.7333326 1.59187,1.31715539 2.5752,1.75048829 0.98333,0.42499958 2.04098,0.63720705 3.17432,0.63720705 0.75,0 1.4719,-0.0954429 2.16357,-0.28710938 0.7,-0.1999998 1.34971,-0.4747074 1.94971,-0.82470705 0.6,-0.34999961 1.14941,-0.77587941 1.64941,-1.27587891 0.5,-0.4999995 0.92588,-1.0494147 1.27588,-1.6494141 0.35,-0.5999994 0.61986,-1.2463224 0.81152,-1.9379884 0.2,-0.6999993 0.3003,-1.4238289 0.3003,-2.1738281 0,-1.1249989 -0.21221,-2.1792659 -0.63721,-3.1625979 -0.425,-0.991666 -1.00882,-1.855046 -1.75049,-2.588379 -0.73333,-0.741666 -1.59525,-1.324024 -2.58691,-1.749023 -0.99167,-0.425 -2.05078,-0.638672 -3.17578,-0.638672 z m -76.21143,0.01318 c -0.50833,0 -0.98363,0.09544 -1.42529,0.28711 -0.44167,0.191666 -0.82491,0.454753 -1.14991,0.788086 -0.325,0.324999 -0.58323,0.711621 -0.7749,1.161621 -0.18333,0.441666 -0.27539,0.91696 -0.27539,1.425293 0,0.283333 0.046,0.566276 0.1377,0.849609 0.0917,0.275 0.20843,0.542937 0.35009,0.80127 0.14167,0.25 0.29961,0.482064 0.47461,0.69873 0.175,0.2166667 0.34603,0.4090174 0.5127,0.5756839 0.008,0.025 0.0248,0.041471 0.0498,0.049805 l 0.41309,0.3999023 c -0.40833,0.1999998 -0.79157,0.4417646 -1.1499,0.7250977 -0.35,0.283333 -0.65912,0.6089197 -0.92579,0.975586 -0.25833,0.3666663 -0.4623,0.7746098 -0.6123,1.2246094 -0.14167,0.4416662 -0.2124,0.9251958 -0.2124,1.4501953 0,0.666666 0.125,1.2950527 0.375,1.8867188 0.25833,0.5833328 0.60862,1.0964198 1.05029,1.538086 0.44167,0.44166621 0.95814,0.79195991 1.54981,1.05029298 0.59166,0.25833308 1.2249,0.38671876 1.8999,0.38671876 0.33333,0 0.66715,-0.0460287 1.00049,-0.13769531 0.34166,-0.08333325 0.67402,-0.20348324 0.99902,-0.36181642 0.325,-0.15833317 0.63411,-0.35068383 0.92578,-0.57568361 0.29167,-0.2249998 0.55814,-0.4750003 0.79981,-0.75 l 0.9873,-1.1499024 2.87549,2.68798836 c 0.10833,0.09166657 0.21686,0.13769532 0.32519,0.13769532 0.15834,0 0.29981,-0.07073583 0.42481,-0.21240235 0.0833,-0.0916666 0.11627,-0.20504572 0.0996,-0.33837892 -0.0167,-0.1333332 -0.0956,-0.26171888 -0.23731,-0.38671876 l -2.8374,-2.66308605 1.98779,-2.324707 c 0.1,-0.1166666 0.14457,-0.2547528 0.13623,-0.413086 0,-0.1583332 -0.0576,-0.2833334 -0.17431,-0.375 -0.0917,-0.091667 -0.20358,-0.1362305 -0.33692,-0.1362305 -0.16666,0 -0.3096,0.065886 -0.42627,0.1992188 l -1.9746,2.2998047 -4.64942,-4.3872071 c 2.26667,-0.6583327 3.3999,-1.9117209 3.3999,-3.7617189 0,-0.508333 -0.0921,-0.983627 -0.27539,-1.425293 -0.18333,-0.441666 -0.43672,-0.824903 -0.76172,-1.149903 -0.325,-0.324999 -0.70823,-0.57985 -1.1499,-0.763183 -0.43333,-0.191667 -0.90863,-0.28711 -1.42529,-0.28711 z M 2.4746138,-15.999506 c -0.1499999,0 -0.2832358,0.04941 -0.3999024,0.149414 -0.1083332,0.09167 -0.1625976,0.221518 -0.1625976,0.388184 v 14.88720742 c 0,0.14999985 0.042643,0.27838553 0.1259765,0.38671876 0.091667,0.10833322 0.2166669,0.17083335 0.375,0.18750000143 h 9.8364257 c 0.15,0.008333329 0.275,-0.0410808414 0.375,-0.14941406143 0.108334,-0.10833323 0.162598,-0.24156918 0.162598,-0.39990236 0,-0.14999985 -0.05426,-0.27500011 -0.162598,-0.37500001 -0.1,-0.10833325 -0.225,-0.16259765 -0.375,-0.16259765 H 2.9873091 V -7.6381773 H 9.974614 c 0.158333,0 0.288184,-0.049414 0.388184,-0.1494141 0.1,-0.1 0.149414,-0.2250001 0.149414,-0.375 0,-0.1499998 -0.04941,-0.2783855 -0.149414,-0.3867188 -0.1,-0.1166665 -0.229851,-0.1709309 -0.388184,-0.1625976 H 2.9873091 v -6.2006842 h 9.2622069 c 0.15,0 0.275,-0.05426 0.375,-0.162597 0.108334,-0.108333 0.162598,-0.236719 0.162598,-0.386719 0,-0.158333 -0.05426,-0.288184 -0.162598,-0.388184 -0.1,-0.1 -0.225,-0.149414 -0.375,-0.149414 z m 12.3251952,0 c -0.133333,0 -0.250097,0.04603 -0.350097,0.137696 -0.108333,0.1 -0.170834,0.225 -0.1875,0.375 -0.01667,0.15 0.02936,0.283235 0.137695,0.399902 l 6.074707,7.1000979 -6,7.0737306 c -0.116666,0.11666655 -0.174316,0.25475278 -0.174316,0.41308595 0,0.14999985 0.05765,0.27014984 0.174316,0.36181642 0.108333,0.09166657 0.229948,0.13769531143 0.363281,0.13769531143 0.15,0 0.283236,-0.0576498614 0.399903,-0.17431641143 l 5.925293,-7.00048847 5.986816,7.00048847 c 0.1,0.11666655 0.233236,0.17431641143 0.399903,0.17431641143 0.133333,0 0.258333,-0.0460287414 0.375,-0.13769531143 0.108333,-0.0916666 0.159212,-0.21181657 0.150879,-0.36181642 0,-0.14999985 -0.05427,-0.28808607 -0.162598,-0.41308595 l -6.05127,-7.0737306 5.988282,-7.0634769 c 0.108333,-0.116666 0.154362,-0.249902 0.137695,-0.399902 -0.0083,-0.158333 -0.06745,-0.283334 -0.175781,-0.375 -0.09167,-0.09167 -0.203581,-0.137696 -0.336914,-0.137696 -0.141667,0 -0.271517,0.05912 -0.388184,0.175782 l -5.923828,6.9873046 -5.988282,-7.0122076 c -0.108333,-0.125 -0.233333,-0.1875 -0.375,-0.1875 z m 31.624513,0 c -0.15,0 -0.283236,0.04941 -0.399902,0.149414 -0.108334,0.09167 -0.162598,0.221518 -0.162598,0.388184 v 14.88720742 c 0,0.14999985 0.04264,0.27838553 0.125976,0.38671876 0.09167,0.10833322 0.216667,0.17083335 0.375,0.18750000143 h 9.837891 c 0.15,0.008333329 0.275,-0.0410808414 0.375,-0.14941406143 0.108334,-0.10833323 0.161133,-0.24156918 0.161133,-0.39990236 0,-0.14999985 -0.0528,-0.27500011 -0.161133,-0.37500001 -0.1,-0.10833325 -0.225,-0.16259765 -0.375,-0.16259765 h -9.263672 v -6.5507814 h 6.987305 c 0.158333,0 0.288184,-0.049414 0.388184,-0.1494141 0.1,-0.1 0.149414,-0.2250001 0.149414,-0.375 0,-0.1499998 -0.04941,-0.2783855 -0.149414,-0.3867188 -0.1,-0.1166665 -0.229851,-0.1709309 -0.388184,-0.1625976 h -6.987305 v -6.2006842 h 9.263672 c 0.15,0 0.275,-0.05426 0.375,-0.162597 0.108334,-0.108333 0.161133,-0.236719 0.161133,-0.386719 0,-0.158333 -0.0528,-0.288184 -0.161133,-0.388184 -0.1,-0.1 -0.225,-0.149414 -0.375,-0.149414 z m 13.700684,0 c -0.15,0 -0.279851,0.05427 -0.388184,0.162598 -0.1,0.1 -0.149414,0.228386 -0.149414,0.386719 v 14.91210951 c 0,0.14166653 0.04118,0.26328136 0.124512,0.36328126 0.08333,0.09166658 0.191862,0.14931644 0.325195,0.17431641143 h 9.575684 c 0.141667,0.008333329 0.266667,-0.0410808414 0.375,-0.14941406143 0.108333,-0.10833323 0.162598,-0.24156918 0.162598,-0.39990236 0,-0.14999985 -0.05427,-0.27500011 -0.162598,-0.37500001 -0.108333,-0.0999998 -0.233333,-0.15087895 -0.375,-0.15087895 l -8.950195,-0.011719 V -15.450189 c 0,-0.158333 -0.05427,-0.286719 -0.162598,-0.386719 -0.1,-0.108333 -0.225,-0.162598 -0.375,-0.162598 z m 13.025391,0 c -0.15,0 -0.283236,0.04941 -0.399903,0.149414 -0.108333,0.09167 -0.162597,0.221518 -0.162597,0.388184 v 14.88720742 c 0,0.14999985 0.04118,0.27838553 0.124512,0.38671876 0.09167,0.10833322 0.216666,0.17083335 0.375,0.18750000143 h 9.83789 c 0.15,0.008333329 0.275,-0.0410808414 0.375,-0.14941406143 0.108334,-0.10833323 0.162598,-0.24156918 0.162598,-0.39990236 0,-0.14999985 -0.05426,-0.27500011 -0.162598,-0.37500001 -0.1,-0.10833325 -0.225,-0.16259765 -0.375,-0.16259765 h -9.262207 v -6.5507814 h 6.987305 c 0.158333,0 0.286719,-0.049414 0.386719,-0.1494141 0.1,-0.1 0.150879,-0.2250001 0.150879,-0.375 0,-0.1499998 -0.05088,-0.2783855 -0.150879,-0.3867188 -0.1,-0.1166665 -0.228386,-0.1709309 -0.386719,-0.1625976 h -6.987305 v -6.2006842 h 9.262207 c 0.15,0 0.275,-0.05426 0.375,-0.162597 0.108334,-0.108333 0.162598,-0.236719 0.162598,-0.386719 0,-0.158333 -0.05426,-0.288184 -0.162598,-0.388184 -0.1,-0.1 -0.225,-0.149414 -0.375,-0.149414 z m 13.699219,0 c -0.15,0 -0.278386,0.05427 -0.386719,0.162598 -0.1,0.108333 -0.150879,0.236719 -0.150879,0.386719 v 14.91210951 c 0,0.14999985 0.05088,0.27985038 0.150879,0.38818361 0.108333,0.0999999 0.236719,0.14941406143 0.386719,0.14941406143 0.15,0 0.275,-0.0494141614 0.375,-0.14941406143 0.108333,-0.10833323 0.162598,-0.23818376 0.162598,-0.38818361 V -13.925287 l 10.662597,13.75048877 0.08789,0.074707 c 0.06667,0.0666666 0.145638,0.0996093814 0.237305,0.0996093814 h 0.137695 c 0.125,-0.0166666514 0.228679,-0.0743165114 0.312012,-0.1743164114 0.09167,-0.0999999 0.137695,-0.22161473 0.137695,-0.36328126 V -15.450189 c 0,-0.15 -0.04941,-0.278386 -0.149414,-0.386719 -0.09167,-0.108333 -0.221517,-0.162598 -0.388184,-0.162598 -0.158333,0 -0.291569,0.05427 -0.399902,0.162598 -0.1,0.108333 -0.149414,0.236719 -0.149414,0.386719 V -2.1494077 L 87.299323,-15.775385 c -0.133333,-0.149999 -0.283041,-0.224121 -0.449707,-0.224121 z m 32.475584,0 c -0.15,0 -0.27985,0.04941 -0.38818,0.149414 -0.1,0.1 -0.14942,0.229851 -0.14942,0.388184 v 14.92382851 c 0,0.14999985 0.0494,0.27985038 0.14942,0.38818361 0.10833,0.0999999 0.23818,0.14941406143 0.38818,0.14941406143 0.15,0 0.275,-0.0494141614 0.375,-0.14941406143 0.10834,-0.10833323 0.1626,-0.23818376 0.1626,-0.38818361 V -15.461908 c 0,-0.158333 -0.0543,-0.288184 -0.1626,-0.388184 -0.1,-0.1 -0.225,-0.149414 -0.375,-0.149414 z m 10.36231,0 c -0.23334,0 -0.40436,0.108529 -0.5127,0.325196 l -6.4248,14.91210941 c -0.0667,0.14166653 -0.0749,0.28313818 -0.0249,0.4248047 0.05,0.1333332 0.14544,0.23362638 0.2871,0.30029298 0.075,0.02499997 0.15059,0.0366210914 0.22559,0.0366210914 0.10833,0 0.20863,-0.0247070814 0.30029,-0.0747070314 0.0917,-0.05833328 0.15756,-0.14215506 0.19922,-0.25048829 l 1.57471,-3.68701186 h 8.73779 l 1.57471,3.70019545 c 0.10833,0.21666645 0.27936,0.32519533 0.51269,0.32519533 0.0917,0 0.17064,-0.01647139 0.23731,-0.04980469 0.13333,-0.0666666 0.222,-0.16695978 0.26367,-0.30029298 0.0417,-0.1333332 0.032,-0.27141942 -0.0264,-0.41308595 L 130.1753,-15.67431 c -0.0917,-0.216667 -0.25446,-0.325196 -0.48779,-0.325196 z m 51.5625,0 c -0.15,0 -0.28324,0.04941 -0.3999,0.149414 -0.10834,0.09167 -0.1626,0.221518 -0.1626,0.388184 v 14.88720742 c 0,0.14999985 0.0412,0.27838553 0.12451,0.38671876 0.0917,0.10833322 0.21667,0.17083335 0.375,0.18750000143 h 9.83789 c 0.15,0.008333329 0.275,-0.0410808414 0.375,-0.14941406143 0.10833,-0.10833323 0.1626,-0.24156918 0.1626,-0.39990236 0,-0.14999985 -0.0543,-0.27500011 -0.1626,-0.37500001 -0.1,-0.10833325 -0.225,-0.16259765 -0.375,-0.16259765 h -9.26221 v -6.5507814 h 6.98731 c 0.15833,0 0.28818,-0.049414 0.38818,-0.1494141 0.1,-0.1 0.14942,-0.2250001 0.14942,-0.375 0,-0.1499998 -0.0494,-0.2783855 -0.14942,-0.3867188 -0.1,-0.1166665 -0.22985,-0.1709309 -0.38818,-0.1625976 h -6.98731 v -6.2006842 h 9.26221 c 0.15,0 0.275,-0.05426 0.375,-0.162597 0.10833,-0.108333 0.1626,-0.236719 0.1626,-0.386719 0,-0.158333 -0.0543,-0.288184 -0.1626,-0.388184 -0.1,-0.1 -0.225,-0.149414 -0.375,-0.149414 z m 13.70068,0 c -0.15,0 -0.27985,0.05427 -0.38818,0.162598 -0.1,0.108333 -0.14941,0.236719 -0.14941,0.386719 v 14.91210951 c 0,0.14999985 0.0494,0.27985038 0.14941,0.38818361 0.10833,0.0999999 0.23818,0.14941406143 0.38818,0.14941406143 0.15,0 0.275,-0.0494141614 0.375,-0.14941406143 0.10834,-0.10833323 0.16114,-0.23818376 0.16114,-0.38818361 V -13.925287 l 10.66259,13.75048877 0.0879,0.074707 c 0.0667,0.0666666 0.14564,0.0996093814 0.23731,0.0996093814 h 0.13769 c 0.125,-0.0166666514 0.22868,-0.0743165114 0.31202,-0.1743164114 0.0917,-0.0999999 0.13769,-0.22161473 0.13769,-0.36328126 V -15.450189 c 0,-0.15 -0.0494,-0.278386 -0.14941,-0.386719 -0.0917,-0.108333 -0.22152,-0.162598 -0.38819,-0.162598 -0.15833,0 -0.29157,0.05427 -0.3999,0.162598 -0.1,0.108333 -0.14941,0.236719 -0.14941,0.386719 V -2.1494077 L 195.4004,-15.775385 c -0.13333,-0.149999 -0.28304,-0.224121 -0.44971,-0.224121 z m 16.72412,0 c -0.15,0 -0.27838,0.04941 -0.38671,0.149414 -0.1,0.1 -0.15088,0.229851 -0.15088,0.388184 v 14.92382851 c 0,0.14999985 0.0509,0.27985038 0.15088,0.38818361 0.10833,0.0999999 0.23671,0.14941406143 0.38671,0.14941406143 0.15,0 0.275,-0.0494141614 0.375,-0.14941406143 0.10834,-0.10833323 0.1626,-0.23818376 0.1626,-0.38818361 V -15.461908 c 0,-0.158333 -0.0543,-0.288184 -0.1626,-0.388184 -0.1,-0.1 -0.225,-0.149414 -0.375,-0.149414 z m -64.06201,0.9375 c 0.375,0 0.72044,0.06589 1.03711,0.199219 0.31667,0.133333 0.58799,0.320834 0.81299,0.5625 0.23333,0.233333 0.4126,0.508041 0.5376,0.824707 0.13333,0.308333 0.19922,0.647006 0.19922,1.013672 0,0.3 -0.0494,0.591179 -0.14942,0.874512 -0.1,0.275 -0.25794,0.538086 -0.47461,0.788086 -0.20833,0.241666 -0.47965,0.462109 -0.81299,0.662109 -0.33333,0.1916667 -0.73304,0.3496097 -1.1997,0.4746096 h -0.0249 l -0.5625,0.149414 -0.66357,-0.6240236 c -0.13333,-0.125 -0.27481,-0.274707 -0.4248,-0.449707 -0.14167,-0.183333 -0.27491,-0.375684 -0.39991,-0.575683 -0.125,-0.2 -0.22868,-0.408822 -0.31201,-0.625489 -0.0833,-0.225 -0.12598,-0.445443 -0.12598,-0.662109 0,-0.366666 0.0625,-0.708724 0.1875,-1.025391 0.13334,-0.324999 0.3126,-0.603093 0.5376,-0.836426 0.23334,-0.233333 0.50466,-0.417448 0.81299,-0.550781 0.31667,-0.133333 0.65872,-0.199219 1.02539,-0.199219 z m 76.18653,0.01172 c 0.975,0 1.89264,0.187501 2.75097,0.5625 0.85834,0.366666 1.60349,0.871518 2.23682,1.513184 0.64167,0.633332 1.14652,1.378484 1.51318,2.236816 0.375,0.8583327 0.5625,1.7759778 0.5625,2.7509769 0,0.6499993 -0.0838,1.278386 -0.25049,1.8867188 -0.16666,0.5999994 -0.40358,1.1625005 -0.71191,1.6875 -0.30833,0.5166661 -0.67995,0.9919601 -1.11328,1.425293 -0.425,0.4249996 -0.90029,0.7917647 -1.42529,1.1000977 -0.525,0.308333 -1.0875,0.5452476 -1.6875,0.7119141 -0.6,0.1666665 -1.225,0.25048825 -1.875,0.25048825 -0.65,0 -1.27839,-0.0838218 -1.88672,-0.25048825 -0.6,-0.1666665 -1.1625,-0.4035811 -1.6875,-0.7119141 -0.51667,-0.308333 -0.98711,-0.6750981 -1.41211,-1.1000977 -0.425,-0.4333329 -0.79177,-0.9086269 -1.1001,-1.425293 -0.3,-0.5249995 -0.53353,-1.0875006 -0.70019,-1.6875 -0.16667,-0.6083328 -0.25049,-1.2367195 -0.25049,-1.8867188 0,-0.9749991 0.18411,-1.8926442 0.55078,-2.7509769 0.36666,-0.858332 0.86667,-1.603484 1.5,-2.236816 0.63333,-0.641666 1.37848,-1.146518 2.23681,-1.513184 0.85834,-0.374999 1.77452,-0.5625 2.74952,-0.5625 z m -94.11182,0.774902 3.9126,9.175782 h -7.8501 z m 16.97461,5.9135748 5.12549,4.7988283 -1.02539,1.2260742 c -0.16667,0.1749999 -0.35756,0.3494143 -0.57422,0.5244141 -0.21667,0.1666665 -0.45505,0.3163739 -0.71338,0.4497071 -0.25,0.1333332 -0.51162,0.241862 -0.78662,0.3251953 -0.275,0.0833332 -0.55941,0.1245117 -0.85108,0.1245117 -0.53333,0 -1.03333,-0.1036786 -1.5,-0.3120117 -0.45833,-0.2083331 -0.86142,-0.487891 -1.21142,-0.8378907 -0.34167,-0.3499996 -0.61299,-0.7579432 -0.81299,-1.2246094 -0.19167,-0.4666662 -0.28711,-0.9618169 -0.28711,-1.4868164 0,-0.4416662 0.0625,-0.8462244 0.1875,-1.2128907 0.13333,-0.3666663 0.3126,-0.7004886 0.5376,-1.0004883 0.23333,-0.2999997 0.51142,-0.5616213 0.83642,-0.7866211 0.325,-0.2333331 0.68353,-0.4290692 1.0752,-0.5874024 z M 122.49952,10.6753 c -0.55,0 -1.10427,0.09206 -1.6626,0.27539 -0.55833,0.175 -1.06172,0.433236 -1.51172,0.774903 -0.45,0.333333 -0.81676,0.749512 -1.1001,1.249511 -0.28333,0.491667 -0.4248,1.057553 -0.4248,1.699219 0,0.625 0.14147,1.162794 0.4248,1.612793 0.29167,0.45 0.66182,0.833236 1.11182,1.149903 0.45,0.316666 0.94662,0.579752 1.48828,0.788086 0.55,0.199999 1.08295,0.371028 1.59961,0.512695 0.51667,0.175 1.0249,0.3625 1.5249,0.5625 0.50834,0.191666 0.95892,0.420345 1.35059,0.687012 0.39167,0.258333 0.70755,0.570833 0.94922,0.9375 0.24167,0.366666 0.36328,0.809017 0.36328,1.325683 0,0.6 -0.12161,1.128093 -0.36328,1.586426 -0.23333,0.45 -0.54098,0.825 -0.92432,1.125 -0.38333,0.3 -0.81745,0.530144 -1.30078,0.688477 -0.48333,0.15 -0.9654,0.224121 -1.44873,0.224121 -0.45833,0 -0.90553,-0.05427 -1.33887,-0.162598 -0.43333,-0.116666 -0.83642,-0.277995 -1.21142,-0.486328 -0.375,-0.208333 -0.70882,-0.458334 -1.00049,-0.75 -0.28333,-0.3 -0.50863,-0.630437 -0.67529,-0.98877 -0.15,-0.224999 -0.3128,-0.336914 -0.4878,-0.336914 -0.0667,0 -0.14902,0.02132 -0.24902,0.06299 -0.11667,0.05833 -0.20872,0.148926 -0.27539,0.273925 -0.0583,0.116667 -0.0419,0.271225 0.0498,0.462891 0.175,0.425 0.43324,0.821322 0.77491,1.187988 0.34166,0.366667 0.73799,0.687403 1.18798,0.962403 0.45834,0.266666 0.95834,0.478874 1.50001,0.637207 0.54166,0.15 1.09931,0.225586 1.67431,0.225586 0.66667,0 1.31299,-0.108529 1.93799,-0.325196 0.625,-0.224999 1.17441,-0.54235 1.64941,-0.950683 0.48334,-0.408333 0.86804,-0.903484 1.15137,-1.486817 0.29167,-0.583332 0.43652,-1.241276 0.43652,-1.974609 0,-0.666666 -0.14147,-1.237403 -0.4248,-1.712402 -0.275,-0.475 -0.64515,-0.884408 -1.11182,-1.226075 -0.46666,-0.349999 -1.00107,-0.649414 -1.60107,-0.899414 -0.59167,-0.25 -1.20843,-0.483529 -1.8501,-0.700195 -0.35,-0.1 -0.74486,-0.22015 -1.18652,-0.361817 -0.44167,-0.141666 -0.85931,-0.325781 -1.25098,-0.550781 -0.39166,-0.233333 -0.72064,-0.516276 -0.9873,-0.849609 -0.26667,-0.341666 -0.39991,-0.762696 -0.39991,-1.262696 0.008,-0.491666 0.1251,-0.920931 0.3501,-1.287597 0.23334,-0.366667 0.52451,-0.670931 0.87451,-0.912598 0.35834,-0.241666 0.75127,-0.420931 1.17627,-0.537598 0.425,-0.116666 0.83295,-0.174316 1.22461,-0.174316 0.71667,0 1.38285,0.133236 1.99951,0.399902 0.625,0.258333 1.18751,0.723927 1.6875,1.398926 0.1,0.09167 0.22162,0.137696 0.36329,0.137696 0.11666,0 0.22519,-0.04118 0.32519,-0.124512 0.0667,-0.06667 0.11608,-0.150489 0.14942,-0.250488 0.0417,-0.108334 0.0286,-0.216863 -0.0381,-0.325196 -0.21667,-0.374999 -0.48314,-0.707357 -0.79981,-0.999023 -0.30833,-0.291667 -0.65862,-0.533431 -1.05029,-0.725098 -0.38333,-0.191666 -0.79951,-0.337988 -1.24951,-0.437988 -0.45,-0.1 -0.91706,-0.149414 -1.40039,-0.149414 z m -77.69971,0.124511 c -0.15,0 -0.283236,0.05088 -0.399902,0.150879 -0.108333,0.09167 -0.162598,0.220053 -0.162598,0.386719 v 14.887207 c 0,0.15 0.04118,0.279851 0.124512,0.388184 0.09167,0.108333 0.216667,0.170833 0.375,0.1875 h 9.837891 c 0.15,0.0083 0.275,-0.04255 0.375,-0.150879 0.108333,-0.108333 0.162597,-0.241569 0.162597,-0.399902 0,-0.15 -0.05426,-0.275 -0.162597,-0.375 -0.1,-0.108333 -0.225,-0.162598 -0.375,-0.162598 h -9.262208 v -6.549316 h 6.987305 c 0.158334,0 0.288184,-0.04941 0.388184,-0.149414 0.1,-0.1 0.149414,-0.225001 0.149414,-0.375 0,-0.15 -0.04941,-0.279851 -0.149414,-0.388184 -0.1,-0.116667 -0.22985,-0.170931 -0.388184,-0.162598 H 45.312505 V 11.88819 h 9.262208 c 0.15,0 0.275,-0.05426 0.375,-0.162597 0.108333,-0.108334 0.162597,-0.238184 0.162597,-0.388184 0,-0.158333 -0.05426,-0.286719 -0.162597,-0.386719 -0.1,-0.1 -0.225,-0.150879 -0.375,-0.150879 z m 13.700684,0 c -0.15,0 -0.27985,0.05426 -0.388184,0.162598 -0.1,0.1 -0.149414,0.225 -0.149414,0.375 v 14.925293 c 0,0.15 0.04941,0.278386 0.149414,0.386719 0.108334,0.1 0.238184,0.150879 0.388184,0.150879 0.15,0 0.275,-0.05088 0.375,-0.150879 0.108333,-0.108333 0.162598,-0.236719 0.162598,-0.386719 V 12.82569 l 5.76123,7.161622 c 0.05,0.09167 0.1125,0.170638 0.1875,0.237304 0.08333,0.05833 0.180241,0.08789 0.288575,0.08789 0.04167,0 0.07461,-0.0049 0.09961,-0.01318 0.03333,-0.0083 0.08275,-0.02819 0.149414,-0.06152 l 0.0249,-0.0249 c 0.05,-0.03333 0.08779,-0.06289 0.112793,-0.08789 l 5.837403,-7.299317 v 13.437012 c 0,0.15 0.05426,0.278386 0.162598,0.386719 0.108333,0.1 0.233333,0.150879 0.375,0.150879 0.149999,0 0.27985,-0.05088 0.388183,-0.150879 0.108333,-0.108333 0.162598,-0.236719 0.162598,-0.386719 V 11.337409 c 0,-0.15 -0.05088,-0.275 -0.150879,-0.375 -0.1,-0.108333 -0.233236,-0.162598 -0.399902,-0.162598 -0.06667,0 -0.137403,0.01647 -0.212403,0.0498 -0.075,0.03333 -0.13265,0.07113 -0.174316,0.112793 L 65.287115,18.9253 58.887213,10.962409 c -0.05833,-0.05 -0.120834,-0.08779 -0.1875,-0.112793 -0.03333,-0.01667 -0.05804,-0.0249 -0.07471,-0.0249 l -0.0249,-0.01172 h -0.0498 c -0.01667,-0.0083 -0.03314,-0.01318 -0.0498,-0.01318 z m 18.47461,0 c -0.15,0 -0.27985,0.05088 -0.388184,0.150879 -0.1,0.1 -0.149414,0.228386 -0.149414,0.386719 v 14.925293 c 0,0.141667 0.04603,0.266667 0.137696,0.375 0.1,0.108334 0.233235,0.162598 0.399902,0.162598 0.15,0 0.275,-0.05088 0.375,-0.150879 0.108333,-0.108333 0.162598,-0.236719 0.162598,-0.386719 v -4.125 h 4.050293 c 0.799999,0 1.54515,-0.146322 2.236816,-0.437988 0.699999,-0.291666 1.303679,-0.691374 1.812012,-1.199707 0.516666,-0.508333 0.921224,-1.103777 1.212891,-1.787109 0.299999,-0.691666 0.449707,-1.430047 0.449707,-2.213379 0,-0.783333 -0.144857,-1.520249 -0.436524,-2.211915 -0.291666,-0.691665 -0.691374,-1.295345 -1.199707,-1.812011 -0.508333,-0.516666 -1.113477,-0.926075 -1.813477,-1.226075 -0.691666,-0.299999 -1.436817,-0.449707 -2.236816,-0.449707 z m 13.899903,0 c -0.15,0 -0.279851,0.05088 -0.388184,0.150879 -0.1,0.1 -0.149414,0.228386 -0.149414,0.386719 v 14.925293 c 0,0.15 0.04941,0.278386 0.149414,0.386719 0.108333,0.1 0.238184,0.150879 0.388184,0.150879 0.149999,0 0.275,-0.05088 0.375,-0.150879 0.108333,-0.108333 0.162597,-0.236719 0.162597,-0.386719 v -4.725586 h 4.03711 c 0.141666,0 0.279753,-0.0034 0.413086,-0.01172 0.141666,-0.0083 0.283138,-0.02142 0.424804,-0.03809 L 100.1753,26.6128 c 0.10833,0.108333 0.23672,0.162598 0.38672,0.162598 0.11667,0 0.22519,-0.03779 0.32519,-0.112793 0.125,-0.09167 0.19574,-0.216667 0.21241,-0.375 0.0167,-0.166667 -0.0376,-0.312989 -0.1626,-0.437989 l -3.474611,-4.612793 c 0.541666,-0.174999 1.038282,-0.415299 1.488281,-0.723632 0.458333,-0.308333 0.849805,-0.671713 1.17481,-1.088379 0.33333,-0.425 0.59156,-0.900294 0.7749,-1.425293 0.18333,-0.525 0.27392,-1.090886 0.27392,-1.699219 0,-0.783333 -0.1497,-1.508627 -0.4497,-2.175293 -0.3,-0.675 -0.70795,-1.258822 -1.224613,-1.750489 C 98.991674,11.882852 98.39138,11.499616 97.699714,11.224616 97.008048,10.941283 96.271132,10.799811 95.4878,10.799811 Z m 14.150393,0 c -0.15,0 -0.28324,0.05088 -0.3999,0.150879 -0.10834,0.09167 -0.1626,0.220053 -0.1626,0.386719 v 14.887207 c 0,0.15 0.0412,0.279851 0.12451,0.388184 0.0917,0.108333 0.21667,0.170833 0.375,0.1875 h 9.83789 c 0.15,0.0083 0.275,-0.04255 0.375,-0.150879 0.10833,-0.108333 0.1626,-0.241569 0.1626,-0.399902 0,-0.15 -0.0543,-0.275 -0.1626,-0.375 -0.1,-0.108333 -0.225,-0.162598 -0.375,-0.162598 h -9.26221 v -6.549316 h 6.98731 c 0.15833,0 0.28672,-0.04941 0.38672,-0.149414 0.1,-0.1 0.15088,-0.225001 0.15088,-0.375 0,-0.15 -0.0509,-0.279851 -0.15088,-0.388184 -0.1,-0.116667 -0.22839,-0.170931 -0.38672,-0.162598 h -6.98731 V 11.88819 h 9.26221 c 0.15,0 0.275,-0.05426 0.375,-0.162597 0.10833,-0.108334 0.1626,-0.238184 0.1626,-0.388184 0,-0.158333 -0.0543,-0.286719 -0.1626,-0.386719 -0.1,-0.1 -0.225,-0.150879 -0.375,-0.150879 z m 31.13672,0 c -0.23334,0 -0.40436,0.108529 -0.5127,0.325196 l -6.4248,14.912109 c -0.0667,0.141667 -0.0749,0.283139 -0.0249,0.424805 0.05,0.133333 0.14545,0.233627 0.28711,0.300293 0.075,0.025 0.15059,0.03809 0.22559,0.03809 0.10833,0 0.20863,-0.02471 0.30029,-0.07471 0.0917,-0.05833 0.15756,-0.142155 0.19922,-0.250488 l 1.57617,-3.687012 h 8.73633 l 1.57617,3.698731 c 0.10834,0.216666 0.2779,0.325195 0.51123,0.325195 0.0917,0 0.17211,-0.01647 0.23877,-0.0498 0.13334,-0.06667 0.22054,-0.16696 0.26221,-0.300293 0.0417,-0.133333 0.0334,-0.269954 -0.0249,-0.411621 l -6.43799,-14.925293 c -0.0917,-0.216667 -0.25446,-0.325196 -0.48779,-0.325196 z m 9.5874,0 c -0.15,0 -0.27839,0.05088 -0.38672,0.150879 -0.1,0.1 -0.15088,0.228386 -0.15088,0.386719 v 14.925293 c 0,0.15 0.0509,0.278386 0.15088,0.386719 0.10833,0.1 0.23672,0.150879 0.38672,0.150879 0.15,0 0.275,-0.05088 0.375,-0.150879 0.10833,-0.108333 0.1626,-0.236719 0.1626,-0.386719 v -4.725586 h 4.03857 c 0.14167,0 0.27829,-0.0034 0.41162,-0.01172 0.14167,-0.0083 0.28314,-0.02142 0.42481,-0.03809 l 3.88769,5.125488 c 0.10834,0.108333 0.23819,0.162598 0.38819,0.162598 0.11666,0 0.22519,-0.03779 0.32519,-0.112793 0.125,-0.09167 0.19574,-0.216667 0.2124,-0.375 0.0167,-0.166667 -0.0376,-0.312989 -0.16259,-0.437989 l -3.47608,-4.612793 c 0.54167,-0.174999 1.03828,-0.415299 1.48828,-0.723632 0.45834,-0.308333 0.84981,-0.671713 1.17481,-1.088379 0.33333,-0.425 0.59157,-0.900294 0.7749,-1.425293 0.18333,-0.525 0.27539,-1.090886 0.27539,-1.699219 0,-0.783333 -0.14971,-1.508627 -0.44971,-2.175293 -0.3,-0.675 -0.7094,-1.258822 -1.22607,-1.750489 -0.50833,-0.491666 -1.10716,-0.874902 -1.79883,-1.149902 -0.69166,-0.283333 -1.43004,-0.424805 -2.21338,-0.424805 z m 14.12549,0 c -0.15,0 -0.27985,0.05088 -0.38819,0.150879 -0.1,0.1 -0.14941,0.228386 -0.14941,0.386719 v 14.925293 c 0,0.15 0.0494,0.278386 0.14941,0.386719 0.10834,0.1 0.23819,0.150879 0.38819,0.150879 0.15,0 0.275,-0.05088 0.375,-0.150879 0.10833,-0.108333 0.1626,-0.236719 0.1626,-0.386719 V 11.337409 c 0,-0.158333 -0.0543,-0.286719 -0.1626,-0.386719 -0.1,-0.1 -0.225,-0.150879 -0.375,-0.150879 z m 10.3623,0 c -0.23333,0 -0.40436,0.108529 -0.51269,0.325196 l -6.42481,14.912109 c -0.0667,0.141667 -0.0749,0.283139 -0.0249,0.424805 0.05,0.133333 0.14544,0.233627 0.28711,0.300293 0.075,0.025 0.15059,0.03809 0.22559,0.03809 0.10833,0 0.20862,-0.02471 0.30029,-0.07471 0.0917,-0.05833 0.15755,-0.142155 0.19922,-0.250488 l 1.5747,-3.687012 h 8.7378 l 1.57471,3.698731 c 0.10833,0.216666 0.27936,0.325195 0.51269,0.325195 0.0917,0 0.17064,-0.01647 0.23731,-0.0498 0.13333,-0.06667 0.222,-0.16696 0.26367,-0.300293 0.0417,-0.133333 0.0334,-0.269954 -0.0249,-0.411621 l -6.43798,-14.925293 c -0.0917,-0.216667 -0.25446,-0.325196 -0.4878,-0.325196 z m 9.58741,0 c -0.15,0 -0.27839,0.05426 -0.38672,0.162598 -0.1,0.1 -0.15088,0.229851 -0.15088,0.388184 v 14.912109 c 0,0.141667 0.0426,0.261817 0.12597,0.361817 0.0833,0.09167 0.1904,0.150781 0.32374,0.175781 h 9.57568 c 0.14167,0.0083 0.26667,-0.04255 0.375,-0.150879 0.10833,-0.108333 0.1626,-0.241569 0.1626,-0.399902 0,-0.15 -0.0543,-0.275 -0.1626,-0.375 -0.10833,-0.1 -0.23333,-0.149414 -0.375,-0.149414 l -8.9502,-0.01318 V 11.350593 c 0,-0.158333 -0.0543,-0.288184 -0.16259,-0.388184 -0.1,-0.108333 -0.225,-0.162598 -0.375,-0.162598 z M 77.512702,11.88819 h 4.100097 c 0.683333,0 1.303484,0.133236 1.861817,0.399903 0.566666,0.258333 1.050196,0.603776 1.450195,1.037109 0.4,0.425 0.709115,0.916765 0.925781,1.475098 0.225,0.549999 0.336915,1.115886 0.336915,1.699219 0,0.591666 -0.111915,1.162403 -0.336915,1.712402 -0.216666,0.549999 -0.529167,1.038379 -0.9375,1.463379 -0.399999,0.416666 -0.883529,0.753874 -1.450195,1.012207 -0.558333,0.25 -1.183334,0.375 -1.875,0.375 h -4.075195 z m 13.899902,0 h 4.100098 c 0.666666,0 1.278581,0.12015 1.836914,0.361817 0.566666,0.233333 1.050196,0.554069 1.450196,0.962402 0.408332,0.408333 0.725683,0.878777 0.950683,1.41211 0.225,0.524999 0.336915,1.084115 0.336915,1.675781 0,0.583333 -0.116765,1.129362 -0.350098,1.637695 -0.225,0.508333 -0.540886,0.949219 -0.949219,1.324219 -0.408333,0.375 -0.896713,0.671029 -1.463379,0.887695 -0.566666,0.208333 -1.186817,0.312012 -1.861817,0.312012 h -4.050293 z m 54.874516,0 h 4.1001 c 0.66666,0 1.28004,0.12015 1.83837,0.361817 0.56667,0.233333 1.04873,0.554069 1.44873,0.962402 0.40834,0.408333 0.72569,0.878777 0.95069,1.41211 0.225,0.524999 0.33691,1.084115 0.33691,1.675781 0,0.583333 -0.11676,1.129362 -0.3501,1.637695 -0.225,0.508333 -0.54088,0.949219 -0.94921,1.324219 -0.40834,0.375 -0.89525,0.671029 -1.46192,0.887695 -0.56666,0.208333 -1.18828,0.312012 -1.86328,0.312012 h -4.05029 z m -10.125,0.637207 3.91259,9.174317 h -7.85009 z m 34.07519,0 3.9126,9.174317 h -7.8501 z"
         transform="matrix(1,0,0,-1,267.6001,241.4922)"
         inkscape:label="slogan" />
      <g
         id="g336"
         transform="translate(452.7998,321.5498)"
         inkscape:label="corners">
        <path
           d="M 0,0 V -23 H 29.663"
           style="fill:none;stroke:#ee750f;stroke-width:2;stroke-linecap:round;stroke-linejoin:miter;stroke-miterlimit:10;stroke-dasharray:none;stroke-opacity:1"
           id="path334"
           inkscape:label="left"
           transform="translate(-133.3276,-25.1475)" />
        <path
           d="M 0,0 V 23 H -29.662"
           style="fill:none;stroke:#ee750f;stroke-width:2;stroke-linecap:round;stroke-linejoin:miter;stroke-miterlimit:10;stroke-dasharray:none;stroke-opacity:1"
           id="path338"
           inkscape:label="right" />
      </g>
      <g
         id="g300"
         clip-path="url(#clipPath304)"
         inkscape:label="D55"
         transform="translate(2.3357942e-6)">
        <path
           d="m 0,0 h -14.078 c -0.695,0 -1.317,-0.543 -1.317,-1.316 0,-0.696 0.622,-1.313 1.317,-1.313 H 0 c 13.23,0 24.059,-10.754 24.059,-24.059 0,-6.421 -2.551,-12.457 -7.039,-17.019 C 12.457,-48.195 6.422,-50.75 0,-50.75 h -14.078 c -0.695,0 -1.317,-0.539 -1.317,-1.313 0,-0.695 0.622,-1.238 1.317,-1.238 H 0 c 7.117,0 13.77,2.707 18.801,7.813 5.105,5.027 7.812,11.683 7.812,18.8 C 26.613,-11.988 14.699,0 0,0 m -13.922,-46.648 c 0.774,0 1.313,0.543 1.313,1.316 v 37.363 c 0,0.696 -0.539,1.317 -1.313,1.317 -0.699,0 -1.316,-0.621 -1.316,-1.317 v -37.363 c 0,-0.773 0.617,-1.316 1.316,-1.316"
           style="fill:#ee750f;fill-opacity:1;fill-rule:nonzero;stroke:none"
           id="path308"
           inkscape:label="D"
           transform="translate(343.3125,335.541)" />
        <path
           d="m 0,0 c -4.332,0 -8.355,-1.703 -11.449,-4.566 v 21.894 h 24.601 c 0.696,0 1.239,0.621 1.239,1.316 0,0.774 -0.543,1.317 -1.239,1.317 h -25.918 c -0.695,0 -1.312,-0.543 -1.312,-1.317 V -8.121 c 0,-0.543 0.387,-1.082 0.926,-1.238 0.543,-0.157 1.16,0.078 1.472,0.543 2.629,3.867 6.961,6.187 11.68,6.187 7.734,0 14.078,-6.344 14.078,-14.078 0,-7.738 -6.344,-14.082 -14.078,-14.082 -5.184,0 -9.98,2.863 -12.379,7.43 -0.387,0.617 -1.16,0.847 -1.777,0.539 -0.617,-0.387 -0.852,-1.16 -0.543,-1.778 2.941,-5.418 8.512,-8.742 14.699,-8.742 9.207,0 16.633,7.426 16.633,16.633 C 16.633,-7.5 9.207,0 0,0"
           style="fill:#ee750f;fill-opacity:1;fill-rule:nonzero;stroke:none"
           id="path312"
           inkscape:label="5"
           transform="translate(390.4023,315.584)" />
        <path
           d="m 0,0 c -4.332,0 -8.355,-1.703 -11.449,-4.566 v 21.894 h 24.601 c 0.696,0 1.235,0.621 1.235,1.316 0,0.774 -0.539,1.317 -1.235,1.317 h -25.918 c -0.695,0 -1.312,-0.543 -1.312,-1.317 V -8.121 c 0,-0.543 0.387,-1.082 0.926,-1.238 0.543,-0.157 1.16,0.078 1.472,0.543 2.629,3.867 6.961,6.187 11.68,6.187 7.734,0 14.078,-6.344 14.078,-14.078 0,-7.738 -6.344,-14.082 -14.078,-14.082 -5.184,0 -9.98,2.863 -12.379,7.43 -0.387,0.617 -1.16,0.847 -1.777,0.539 -0.621,-0.387 -0.852,-1.16 -0.543,-1.778 2.941,-5.418 8.512,-8.742 14.699,-8.742 9.207,0 16.633,7.426 16.633,16.633 C 16.633,-7.5 9.207,0 0,0"
           style="fill:#ee750f;fill-opacity:1;fill-rule:nonzero;stroke:none"
           id="path316"
           inkscape:label="5"
           transform="translate(428.9687,315.584)" />
      </g>
    </g>
  </g>
</svg>
