<?xml version="1.0" encoding="UTF-8" standalone="no"?>
<!-- Created with Inkscape (http://www.inkscape.org/) -->

<svg
   version="1.1"
   id="svg148"
   width="462.51617"
   height="250"
   viewBox="0 0 462.51617 250"
   sodipodi:docname="logomark.svg"
   inkscape:version="1.2.2 (732a01da63, 2022-12-09, custom)"
   xmlns:inkscape="http://www.inkscape.org/namespaces/inkscape"
   xmlns:sodipodi="http://sodipodi.sourceforge.net/DTD/sodipodi-0.dtd"
   xmlns="http://www.w3.org/2000/svg"
   xmlns:svg="http://www.w3.org/2000/svg">
  <defs
     id="defs152">
    <clipPath
       clipPathUnits="userSpaceOnUse"
       id="clipPath304">
      <path
         d="M 0,576 H 768 V 0 H 0 Z"
         id="path302" />
    </clipPath>
    <clipPath
       clipPathUnits="userSpaceOnUse"
       id="clipPath330">
      <path
         d="M 0,576 H 768 V 0 H 0 Z"
         id="path328" />
    </clipPath>
  </defs>
  <sodipodi:namedview
     id="namedview150"
     pagecolor="#505050"
     bordercolor="#ffffff"
     borderopacity="1"
     inkscape:showpageshadow="0"
     inkscape:pageopacity="0"
     inkscape:pagecheckerboard="1"
     inkscape:deskcolor="#505050"
     showgrid="false"
     inkscape:zoom="0.53320312"
     inkscape:cx="150.97436"
     inkscape:cy="282.25641"
     inkscape:window-width="1360"
     inkscape:window-height="737"
     inkscape:window-x="0"
     inkscape:window-y="0"
     inkscape:window-maximized="1"
     inkscape:current-layer="g156" />
  <g
     id="g156"
     inkscape:groupmode="layer"
     inkscape:label="D55EGE"
     transform="matrix(1.3333333,0,0,-1.3333333,-385.95331,509.00003)">
    <g
       id="g1004"
       transform="matrix(1.4310738,0,0,1.4310738,-166.29225,-112.75726)"
       inkscape:export-filename="../ad21c7c8/logo.svg"
       inkscape:export-xdpi="96"
       inkscape:export-ydpi="96"
       inkscape:label="logomark">
      <g
         id="g326"
         clip-path="url(#clipPath330)"
         inkscape:label="corners"
         transform="matrix(1.7911822,0,0,1.7911822,-251.9695,-273.39286)">
        <path
           d="M 0,0 V -23 H 29.663"
           style="fill:none;stroke:#ee750f;stroke-width:2;stroke-linecap:round;stroke-linejoin:miter;stroke-miterlimit:10;stroke-dasharray:none;stroke-opacity:1"
           id="path334"
           transform="translate(319.4722,296.4023)"
           inkscape:label="left" />
        <path
           d="M 0,0 V 23 H -29.662"
           style="fill:none;stroke:#ee750f;stroke-width:2;stroke-linecap:round;stroke-linejoin:miter;stroke-miterlimit:10;stroke-dasharray:none;stroke-opacity:1"
           id="path338"
           inkscape:label="right"
           transform="translate(452.7998,321.5498)" />
      </g>
      <g
         id="g300"
         clip-path="url(#clipPath304)"
         inkscape:label="D55"
         transform="matrix(1.7911822,0,0,1.7911822,-251.9695,-273.39286)">
        <path
           d="m 0,0 h -14.078 c -0.695,0 -1.317,-0.543 -1.317,-1.316 0,-0.696 0.622,-1.313 1.317,-1.313 H 0 c 13.23,0 24.059,-10.754 24.059,-24.059 0,-6.421 -2.551,-12.457 -7.039,-17.019 C 12.457,-48.195 6.422,-50.75 0,-50.75 h -14.078 c -0.695,0 -1.317,-0.539 -1.317,-1.313 0,-0.695 0.622,-1.238 1.317,-1.238 H 0 c 7.117,0 13.77,2.707 18.801,7.813 5.105,5.027 7.812,11.683 7.812,18.8 C 26.613,-11.988 14.699,0 0,0 m -13.922,-46.648 c 0.774,0 1.313,0.543 1.313,1.316 v 37.363 c 0,0.696 -0.539,1.317 -1.313,1.317 -0.699,0 -1.316,-0.621 -1.316,-1.317 v -37.363 c 0,-0.773 0.617,-1.316 1.316,-1.316"
           style="fill:#ee750f;fill-opacity:1;fill-rule:nonzero;stroke:none"
           id="path308"
           inkscape:label="D"
           transform="translate(343.3125,335.541)" />
        <path
           d="m 0,0 c -4.332,0 -8.355,-1.703 -11.449,-4.566 v 21.894 h 24.601 c 0.696,0 1.239,0.621 1.239,1.316 0,0.774 -0.543,1.317 -1.239,1.317 h -25.918 c -0.695,0 -1.312,-0.543 -1.312,-1.317 V -8.121 c 0,-0.543 0.387,-1.082 0.926,-1.238 0.543,-0.157 1.16,0.078 1.472,0.543 2.629,3.867 6.961,6.187 11.68,6.187 7.734,0 14.078,-6.344 14.078,-14.078 0,-7.738 -6.344,-14.082 -14.078,-14.082 -5.184,0 -9.98,2.863 -12.379,7.43 -0.387,0.617 -1.16,0.847 -1.777,0.539 -0.617,-0.387 -0.852,-1.16 -0.543,-1.778 2.941,-5.418 8.512,-8.742 14.699,-8.742 9.207,0 16.633,7.426 16.633,16.633 C 16.633,-7.5 9.207,0 0,0"
           style="fill:#ee750f;fill-opacity:1;fill-rule:nonzero;stroke:none"
           id="path312"
           inkscape:label="5"
           transform="translate(390.4023,315.584)" />
        <path
           d="m 0,0 c -4.332,0 -8.355,-1.703 -11.449,-4.566 v 21.894 h 24.601 c 0.696,0 1.235,0.621 1.235,1.316 0,0.774 -0.539,1.317 -1.235,1.317 h -25.918 c -0.695,0 -1.312,-0.543 -1.312,-1.317 V -8.121 c 0,-0.543 0.387,-1.082 0.926,-1.238 0.543,-0.157 1.16,0.078 1.472,0.543 2.629,3.867 6.961,6.187 11.68,6.187 7.734,0 14.078,-6.344 14.078,-14.078 0,-7.738 -6.344,-14.082 -14.078,-14.082 -5.184,0 -9.98,2.863 -12.379,7.43 -0.387,0.617 -1.16,0.847 -1.777,0.539 -0.621,-0.387 -0.852,-1.16 -0.543,-1.778 2.941,-5.418 8.512,-8.742 14.699,-8.742 9.207,0 16.633,7.426 16.633,16.633 C 16.633,-7.5 9.207,0 0,0"
           style="fill:#ee750f;fill-opacity:1;fill-rule:nonzero;stroke:none"
           id="path316"
           inkscape:label="5"
           transform="translate(428.9687,315.584)" />
      </g>
    </g>
  </g>
</svg>
