<?xml version="1.0" encoding="UTF-8" standalone="no"?>
<svg
   width="250"
   height="250"
   version="1.1"
   viewBox="0 0 187.5 187.5"
   id="svg548"
   sodipodi:docname="excellence.svg"
   inkscape:export-filename="../bde759c6/excellence.svg"
   inkscape:export-xdpi="96"
   inkscape:export-ydpi="96"
   inkscape:version="1.2.2 (732a01da63, 2022-12-09, custom)"
   xmlns:inkscape="http://www.inkscape.org/namespaces/inkscape"
   xmlns:sodipodi="http://sodipodi.sourceforge.net/DTD/sodipodi-0.dtd"
   xmlns="http://www.w3.org/2000/svg"
   xmlns:svg="http://www.w3.org/2000/svg">
  <sodipodi:namedview
     id="namedview550"
     pagecolor="#505050"
     bordercolor="#ffffff"
     borderopacity="1"
     inkscape:showpageshadow="0"
     inkscape:pageopacity="0"
     inkscape:pagecheckerboard="1"
     inkscape:deskcolor="#505050"
     inkscape:document-units="px"
     showgrid="false"
     inkscape:zoom="1.7579999"
     inkscape:cx="25.881685"
     inkscape:cy="166.95109"
     inkscape:window-width="1360"
     inkscape:window-height="737"
     inkscape:window-x="0"
     inkscape:window-y="0"
     inkscape:window-maximized="1"
     inkscape:current-layer="svg548" />
  <defs
     id="defs452" />
  <g
     id="g546"
     transform="scale(0.75)">
    <g
       id="g732"
       transform="matrix(0.48010128,0,0,0.48010128,-43.019229,-9.4728426)">
      <path
         d="m 449.73,348.15 c -0.50781,-4.2227 -4.0898,-7.3945 -8.3438,-7.3906 h -36.062 v -32.762 c 0,-4.6406 -3.7617,-8.3984 -8.3984,-8.3984 h -17.305 l 12.992,-64.402 22.398,11.648 c 1.2148,0.61719 2.5586,0.94141 3.9219,0.95312 1.7695,-0.008 3.4961,-0.57812 4.9258,-1.625 2.5898,-1.8867 3.8906,-5.0742 3.3594,-8.2305 l -12.656,-72.016 52.359,-51.016 0.004,-0.004 c 2.25,-2.2109 3.0742,-5.5 2.125,-8.5117 -1,-3.0078 -3.6289,-5.1836 -6.7734,-5.5977 l -72.352,-10.753996 -32.371,-65.574 c -1.4023,-2.8984 -4.3398,-4.7383 -7.5586,-4.7383 -3.2188,0 -6.1562,1.8398 -7.5586,4.7383 l -32.371,65.574 -72.07,10.753996 c -3.1445,0.41406 -5.7734,2.5898 -6.7773,5.5977 -0.99219,3.0469 -0.16797,6.3906 2.1289,8.625 l 52.359,51.016 -12.656,71.961 c -0.52344,3.1523 0.77734,6.332 3.3594,8.2148 2.582,1.8828 6.0078,2.1523 8.8516,0.6875 l 22.398,-11.648 12.992,64.566 -17.586,0.004 c -4.6367,0 -8.3984,3.7617 -8.3984,8.3984 v 32.535 l -36.062,0.004 c -4.2539,-0.004 -7.8359,3.168 -8.3438,7.3906 l -22.398,182.84 h -0.004 c -0.29297,2.4062 0.48828,4.8242 2.1289,6.6094 1.5664,1.8281 3.8633,2.875 6.2734,2.8555 h 227.47 c 2.4102,0.0195 4.707,-1.0273 6.2734,-2.8555 1.6055,-1.7812 2.3633,-4.1719 2.0703,-6.5547 z M 300.32,156.8 l -43.344,-42.223 59.922,-8.7344 -0.004,-0.004 c 2.7383,-0.39453 5.1055,-2.1133 6.3281,-4.5938 l 26.77,-54.093996 26.77,54.265996 v -0.004 c 1.2227,2.4805 3.5898,4.1992 6.3281,4.5938 l 59.922,8.7344 -43.348,42.059 c -1.957,1.9492 -2.8516,4.7227 -2.4062,7.4453 l 10.246,59.754 -53.59,-28 c -2.4414,-1.3438 -5.4023,-1.3438 -7.8438,0 l -53.594,28 10.246,-59.695 h 0.004 c 0.46484,-2.7461 -0.43359,-5.543 -2.4062,-7.5039 z m 22.398,70.113 27.273,-14.113 27.105,14.223 -14.617,72.801 h -24.977 z m -77.168,296.8 20.441,-166.16 h 37.07 c 4.6406,0 8.4023,-3.7578 8.4023,-8.3984 v -32.535 h 77.055 v 32.535 c 0,4.6406 3.7617,8.3984 8.4023,8.3984 h 37.07 l 20.273,166.04 z"
         id="path454"
         style="fill:#0089a1;fill-opacity:1" />
      <path
         d="M 403.87,404.27 H 296.13 c -4.6406,0 -8.4023,3.7578 -8.4023,8.3984 0,4.6406 3.7617,8.3984 8.4023,8.3984 h 107.74 c 4.6406,0 8.4023,-3.7578 8.4023,-8.3984 0,-4.6406 -3.7617,-8.3984 -8.4023,-8.3984 z"
         id="path456"
         style="fill:#0089a1;fill-opacity:1" />
      <path
         d="M 403.87,464.8 H 296.13 c -4.6406,0 -8.4023,3.7617 -8.4023,8.3984 0,4.6406 3.7617,8.4023 8.4023,8.4023 h 107.74 c 4.6406,0 8.4023,-3.7617 8.4023,-8.4023 0,-4.6367 -3.7617,-8.3984 -8.4023,-8.3984 z"
         id="path458"
         style="fill:#0089a1;fill-opacity:1" />
      <path
         d="M 403.87,434.62 H 296.13 c -4.6406,0 -8.4023,3.7578 -8.4023,8.3984 0,4.6406 3.7617,8.3984 8.4023,8.3984 h 107.74 c 4.6406,0 8.4023,-3.7578 8.4023,-8.3984 0,-4.6406 -3.7617,-8.3984 -8.4023,-8.3984 z"
         id="path460"
         style="fill:#0089a1;fill-opacity:1" />
      <path
         d="m 552.89,274.96 c -3.3086,-3.2539 -8.6172,-3.2539 -11.926,0 l -11.199,11.199 -11.199,-11.199 h -0.004 c -3.3516,-2.832 -8.3203,-2.6055 -11.402,0.51953 -3.0781,3.125 -3.2344,8.0938 -0.35547,11.406 l 11.199,11.199 -11.199,11.199 v 0.004 c -2.4375,2.3477 -3.2305,5.9297 -2.0078,9.0859 1.2227,3.1562 4.2227,5.2695 7.6055,5.3594 2.2266,-0.008 4.3594,-0.89062 5.9375,-2.4609 l 11.199,-11.199 11.199,11.199 c 3.3008,3.2812 8.6328,3.2812 11.93,0 3.2461,-3.293 3.2461,-8.582 0,-11.875 l -11.199,-11.199 11.199,-11.199 c 1.6289,-1.5664 2.5664,-3.7148 2.6055,-5.9727 0.043,-2.2578 -0.8125,-4.4414 -2.3828,-6.0664 z"
         id="path462"
         style="fill:#0089a1;fill-opacity:1" />
      <path
         d="m 193.2,274.96 c -3.293,-3.2461 -8.5781,-3.2461 -11.871,0 L 170.13,286.159 158.931,274.96 c -3.3555,-2.9062 -8.3828,-2.7266 -11.52,0.41016 -3.1328,3.1367 -3.3125,8.1641 -0.41016,11.516 l 11.199,11.199 -11.199,11.199 v 0.004 c -3.2461,3.293 -3.2461,8.5781 0,11.871 3.2969,3.2812 8.6289,3.2812 11.93,0 l 11.199,-11.199 11.199,11.199 c 1.5781,1.5703 3.7109,2.457 5.9375,2.4648 3.3438,-0.0469 6.3438,-2.0781 7.6328,-5.1641 1.2891,-3.0898 0.62109,-6.6484 -1.6992,-9.0625 l -11.199,-11.199 11.199,-11.199 c 1.625,-1.582 2.543,-3.7539 2.543,-6.0195 0,-2.2695 -0.91797,-4.4375 -2.543,-6.0195 z"
         id="path464"
         style="fill:#0089a1;fill-opacity:1" />
      <path
         d="m 574.56,105.67 11.199,-11.199 h 0.004 c 3.1211,-3.2812 3.082,-8.4453 -0.0899,-11.676 -3.17184,-3.2307 -8.3359,-3.3672 -11.672,-0.30859 l -11.199,11.199 -11.199,-11.199 c -3.293,-3.2461 -8.582,-3.2461 -11.875,0 -1.5859,1.5664 -2.4805,3.707 -2.4805,5.9375 0,2.2305 0.89453,4.3672 2.4805,5.9336 l 11.199,11.199 -11.199,11.199 v 0.004 c -1.5859,1.5664 -2.4805,3.7031 -2.4805,5.9336 0,2.2305 0.89453,4.3672 2.4805,5.9375 1.5781,1.5703 3.7109,2.457 5.9375,2.4648 2.2031,0.0469 4.3398,-0.77734 5.9375,-2.2969 l 11.199,-11.199 11.199,11.199 c 1.5703,1.582 3.707,2.4688 5.9375,2.4648 2.2031,-0.0352 4.3086,-0.91797 5.8789,-2.4648 3.2461,-3.293 3.2461,-8.582 0,-11.871 z"
         id="path466"
         style="fill:#0089a1;fill-opacity:1" />
      <path
         d="m 154.56,131.27 c 2.2266,-0.008 4.3594,-0.89453 5.9375,-2.4648 1.5859,-1.5703 2.4805,-3.707 2.4805,-5.9375 0,-2.2305 -0.89453,-4.3672 -2.4805,-5.9336 l -11.199,-11.199 11.199,-11.199 v -0.0039 c 1.5859,-1.5664 2.4805,-3.7031 2.4805,-5.9336 0,-2.2305 -0.89453,-4.3711 -2.4805,-5.9375 -3.293,-3.2461 -8.5781,-3.2461 -11.871,0 l -11.199,11.199 -11.199,-11.199 h -0.004 c -1.5508,-1.668 -3.7188,-2.6328 -5.9961,-2.6719 -2.2773,-0.03906 -4.4766,0.84766 -6.0859,2.457 -1.6133,1.6133 -2.5,3.8086 -2.4609,6.0898 0.0391,2.2773 1.0039,4.4414 2.6719,5.9961 l 11.199,11.199 -11.199,11.199 v 0.004 c -3.2461,3.2891 -3.2461,8.5781 0,11.871 1.6133,1.5859 3.7852,2.4727 6.0469,2.4648 2.1133,-0.0859 4.1133,-0.96484 5.6016,-2.4648 l 11.199,-11.199 11.199,11.199 c 1.625,1.6367 3.8555,2.5273 6.1602,2.4648 z"
         id="path468"
         style="fill:#0089a1;fill-opacity:1" />
    </g>
  </g>
</svg>
