<?xml version="1.0" encoding="UTF-8" standalone="no"?>
<svg
   width="250"
   height="250"
   version="1.1"
   viewBox="0 0 187.5 187.5"
   id="svg1659"
   sodipodi:docname="noun-innovation-1293488.svg"
   xmlns:inkscape="http://www.inkscape.org/namespaces/inkscape"
   xmlns:sodipodi="http://sodipodi.sourceforge.net/DTD/sodipodi-0.dtd"
   xmlns="http://www.w3.org/2000/svg"
   xmlns:svg="http://www.w3.org/2000/svg">
  <sodipodi:namedview
     id="namedview1661"
     pagecolor="#505050"
     bordercolor="#ffffff"
     borderopacity="1"
     inkscape:showpageshadow="0"
     inkscape:pageopacity="0"
     inkscape:pagecheckerboard="1"
     inkscape:deskcolor="#505050"
     inkscape:document-units="px"
     showgrid="false" />
  <defs
     id="defs1639" />
  <g
     id="g1657"
     transform="matrix(0.75,0,0,0.75,1.3974529e-6,0)">
    <path
       d="m 208.85499,120.83436 c 17.70899,-10.93754 31.77154,-22.916153 35.93762,-34.375123 2.08394,-5.728592 2.08394,-10.937539 -0.52143,-15.625055 -6.77145,-13.021476 -20.834,-13.54112 -39.58407,-11.45897 C 194.27279,25.000089 162.50125,0 124.99933,0 87.497414,0 55.726764,25.000089 45.311544,58.852889 26.561484,57.290383 12.498932,57.290383 5.7274787,70.833289 3.1238977,75.520805 3.1238977,80.729753 5.2060487,86.458344 10.93464,101.56197 32.809714,117.18703 57.291054,130.2085 c 4.16609,6.25002 8.85361,11.45897 11.97862,14.06255 7.29109,7.2911 11.97861,13.54112 15.10362,19.2715 -30.72868,8.8536 -54.68769,11.45897 -65.102909,6.25002 -2.603581,-1.56425 -3.644701,-3.12675 -3.644701,-4.16783 -0.52143,-3.12501 0,-6.25002 1.562506,-9.89646 1.041075,0.52143 2.083936,0.52143 3.646441,0.52143 8.853603,0 15.625053,-6.77145 15.625053,-15.62506 0,-8.8536 -6.77145,-15.62505 -15.625053,-15.62505 -8.853603,0 -15.6250563,6.77145 -15.6250563,15.62505 0,3.64645 1.041076,6.77146 3.125012,9.37504 -3.646442,6.25002 -4.687517,11.97861 -3.125012,17.70899 1.041076,4.68752 4.687517,8.8536 9.3750343,11.45897 5.208947,2.60358 11.978615,3.64644 19.791145,3.64644 15.62505,0 34.89655,-4.16609 53.12519,-9.37503 0,1.04107 0.52143,2.60358 0.52143,3.64644 h -5.20895 v 10.41611 h 5.20895 v 10.41611 h -5.20895 v 10.4161 h 5.20895 v 10.41611 c 0,2.60358 1.04107,5.20895 3.12501,7.2911 2.60358,2.08394 5.20716,3.12501 7.81253,3.12501 h 5.208936 v 10.41611 c 0,2.60358 1.04108,5.20895 3.12501,7.2911 2.0822,2.08567 4.68574,3.12675 7.2911,3.12675 h 20.834 c 2.60359,0 5.20895,-1.04108 7.2911,-3.12501 2.0822,-2.08394 3.12501,-4.68752 3.12501,-7.2911 v -10.41611 h 5.20895 c 2.60358,0 5.20895,-1.04107 7.2911,-3.12501 2.08219,-2.08393 3.12501,-4.6893 3.12501,-7.29288 v -10.41611 h 5.20895 v -10.41611 h -5.20895 v -10.41611 h 5.20895 v -10.41611 h -5.20895 c 0,-1.04107 0.52143,-2.60358 0.52143,-3.64644 7.2911,2.08394 13.54112,3.64644 20.31257,5.20895 0.52143,7.81253 7.2911,14.06255 15.62506,14.06255 8.8536,0 15.62505,-6.77145 15.62505,-15.62506 0,-8.8536 -6.77145,-15.62505 -15.62505,-15.62505 -5.20895,0 -10.41611,2.60358 -13.02148,6.77145 -6.25002,-1.5625 -12.50004,-3.12501 -19.27149,-4.68752 3.12501,-5.72859 7.81252,-11.97861 15.10362,-19.27149 3.12501,-3.12501 7.2911,-7.81253 11.97862,-14.06255 2.08393,-1.04108 4.16608,-2.08394 6.25002,-3.64645 20.834,13.02148 39.06264,26.5626 35.93763,38.54121 -1.04108,3.12502 -2.08394,6.25003 -10.41611,6.77146 v 10.41611 c 11.45897,0 18.22863,-4.68752 20.834,-14.58399 3.12501,-16.14648 -11.45897,-30.73046 -36.45906,-46.87516 z m -188.018528,14.5822 c 3.125011,0 5.208942,2.08393 5.208942,5.20894 0,3.12501 -2.083931,5.20895 -5.208942,5.20895 -3.125012,0 -5.208948,-2.08394 -5.208948,-5.20895 0,-3.12501 2.083936,-5.20894 5.208948,-5.20894 z m 177.080988,36.45905 c 3.12501,0 5.20894,2.08394 5.20894,5.20895 0,3.12501 -2.08393,5.20895 -5.20894,5.20895 -3.12501,0 -5.20895,-2.08394 -5.20895,-5.20895 0.002,-3.12501 2.08394,-5.20895 5.20895,-5.20895 z m 36.98049,-96.875342 c 1.04107,2.083936 1.04107,4.166086 0,7.291097 -3.12501,8.333959 -14.58398,18.750065 -32.81262,29.687605 3.64644,-8.33396 5.72859,-18.228635 5.72859,-28.64653 0,-4.687516 -0.52143,-9.375033 -1.04107,-14.06255 18.75006,-1.560764 25.00009,0.0018 28.1251,5.730378 z M 125.00022,10.415216 c 40.10372,0 72.91544,32.812617 72.91544,72.915439 0,15.625056 -6.25002,28.646535 -12.50004,38.541205 -14.58398,7.81253 -32.29119,16.14649 -52.08501,24.47866 -2.60358,1.04108 -5.72859,2.08394 -8.33396,3.12501 -2.60358,-1.04107 -5.72859,-2.08393 -8.33396,-3.12501 -19.791136,-8.33396 -37.500126,-16.14648 -52.084996,-24.47866 -6.24646,-9.89467 -12.49648,-22.914364 -12.49648,-38.53942 0,-40.1055 32.81262,-72.919903 72.915436,-72.919903 z M 15.102512,82.290472 c -1.041075,-2.60358 -1.041075,-5.208947 0,-7.291097 3.125012,-6.250022 9.375034,-7.812528 28.125102,-6.250022 -1.04108,5.208947 -1.56251,9.896464 -1.56251,14.58398 0,10.937539 2.60358,20.312577 5.7286,28.646527 C 29.686494,101.04054 18.227524,90.624431 15.102512,82.290472 Z m 66.669882,59.897538 c 10.41611,4.68751 20.312566,8.8536 28.646526,12.50004 -5.72859,2.08394 -10.937536,3.64644 -16.146486,5.20895 -2.60532,-5.20895 -6.77145,-10.93754 -12.50004,-17.70899 z m 53.643046,97.39767 h -20.834 v -10.41611 h 20.834 z m 15.62505,-15.62506 v -5.20895 z m 0,-46.87517 h -41.66622 v 10.41611 h 41.66622 v 10.41611 h -41.66622 v 10.41611 h 41.66622 v 10.41611 l -52.080536,0.002 v -36.45905 c 0,-4.16609 -0.52143,-8.33396 -1.04107,-11.97862 10.416096,-3.12501 19.791136,-6.77145 27.084016,-9.37503 9.37503,3.64644 18.75007,6.77145 27.08403,9.37503 -0.52318,2.08394 -0.52318,4.68752 -1.04456,6.77145 z m 4.68752,-16.66791 c -5.20895,-1.56251 -10.41611,-3.64644 -16.14649,-5.20895 8.33396,-3.64644 18.22864,-7.81253 28.64654,-12.50004 -5.7286,6.2518 -9.89468,11.9804 -12.50005,17.70899 z m -30.72868,-56.2502 c 11.45897,0 20.834,-9.375037 20.834,-20.834007 0,-11.458969 -9.37503,-20.834003 -20.834,-20.834003 -11.45897,0 -20.834,9.375034 -20.834,20.834003 0,11.45897 9.37503,20.834007 20.834,20.834007 z m 0,-31.250115 c 5.72859,0 10.41611,4.687516 10.41611,10.416108 0,5.728592 -4.68752,10.416109 -10.41611,10.416109 -5.72859,0 -10.41611,-4.687517 -10.41611,-10.416109 0,-5.728592 4.68752,-10.416108 10.41611,-10.416108 z m -53.125186,20.834003 14.06255,3.646441 c 0.52143,1.562506 1.04108,3.125011 1.56251,4.166091 l -7.2911,12.50004 c -1.04108,2.08394 -1.04108,4.68752 1.04107,6.25002 l 7.2911,7.2911 c 1.56251,1.56251 4.16609,2.08394 6.25002,1.04108 l 12.500046,-7.2911 c 1.5625,0.52143 2.60358,1.04107 4.16608,1.5625 l 3.64645,14.06255 c 0.52143,2.08394 2.60358,4.16609 5.20894,4.16609 h 10.41611 c 2.60358,0 4.68752,-1.56251 5.20895,-4.16609 l 3.64644,-14.06255 c 1.56251,-0.52143 3.12501,-1.04107 4.16609,-1.5625 l 12.50004,7.2911 c 2.08394,1.04107 4.68752,1.04107 6.25002,-1.04108 l 7.2911,-7.2911 c 1.56251,-1.5625 2.08394,-4.16608 1.04108,-6.25002 l -7.2911,-12.50004 c 0.52143,-1.56251 1.04107,-2.603585 1.5625,-4.166091 l 14.06255,-3.646441 c 2.08394,-0.521431 4.16609,-2.603581 4.16609,-5.208947 V 78.126172 c 0,-2.603581 -1.5625,-4.687517 -4.16609,-5.208947 l -14.06255,-3.646442 c -0.52143,-1.562505 -1.04107,-3.125011 -1.5625,-4.166086 l 7.2911,-12.500045 c 1.04107,-2.083936 1.04107,-4.687517 -1.04108,-6.250022 l -7.2911,-7.291098 c -1.5625,-1.562505 -4.16608,-2.083936 -6.25002,-1.041075 l -12.50004,7.291098 c -1.56251,-0.521431 -2.60358,-1.041075 -4.16609,-1.562506 l -4.16783,-13.54112 c -0.51969,-2.605321 -2.60358,-4.167827 -5.20716,-4.167827 h -10.41611 c -2.60358,0 -4.68751,1.562506 -5.20894,4.166086 l -3.64645,14.06255 c -1.5625,0.521431 -3.12501,1.041076 -4.16608,1.562506 L 94.270694,38.542147 c -2.08393,-1.041076 -4.68751,-1.041076 -6.25002,1.041075 l -7.2911,7.291097 c -1.5625,1.562506 -2.08393,4.166087 -1.04107,6.250023 l 7.2911,12.500044 c -0.52143,1.562506 -1.04108,2.603581 -1.56251,4.166086 l -13.54291,3.126753 c -2.08393,0.52143 -4.16608,2.60358 -4.16608,5.208947 v 10.416109 c 0,2.605321 1.5625,4.687516 4.16608,5.208947 z m 6.25002,-11.45897 13.02148,-3.125011 c 2.08393,-0.52143 3.12501,-2.083936 3.64644,-3.646442 0.52143,-2.60358 1.5625,-5.208947 3.12501,-7.291097 1.04108,-1.562506 1.04108,-3.646442 0,-5.208947 l -6.77145,-11.45897 1.5625,-1.562505 11.458966,6.771452 c 1.56251,1.041076 3.64644,1.041076 5.20895,0 2.60358,-1.562505 4.68752,-2.60358 7.2911,-3.125011 2.08393,-0.52143 3.12501,-2.083936 3.64644,-3.646441 l 3.6447,-13.539334 h 2.08394 l 3.12501,13.021475 c 0.52143,2.083936 2.08393,3.125011 3.64644,3.646441 2.60358,0.521431 5.20894,1.562506 7.2911,3.125011 1.5625,1.041076 3.64644,1.041076 5.20894,0 l 11.45897,-6.771452 1.56251,1.562505 -6.25181,11.457184 c -1.04108,1.562506 -1.04108,3.646442 0,5.208947 1.56251,2.083936 2.60358,4.687517 3.12501,7.291098 0.52143,2.083936 2.08394,3.125011 3.64644,3.646441 l 13.02148,3.125011 v 2.083936 l -13.02148,3.125012 c -2.08393,0.52143 -3.12501,2.083936 -3.64644,3.646441 -0.52143,2.603581 -1.5625,5.208947 -3.12501,7.291098 -1.04108,1.562505 -1.04108,3.64644 0,5.20895 l 6.77145,11.45897 -1.5625,1.5625 -11.45897,-5.73216 c -1.56251,-1.04108 -3.64644,-1.04108 -5.20895,0 -2.60358,1.5625 -4.68752,2.60358 -7.2911,3.12501 -2.08393,0.52143 -3.12501,2.08394 -3.64644,3.64644 l -3.64644,13.02148 h -2.08394 l -3.12501,-13.02148 c -0.52143,-2.08393 -2.08393,-3.12501 -3.64644,-3.64644 -2.60358,-0.52143 -5.20895,-1.56251 -7.2911,-3.12501 -1.5625,-1.04108 -3.64644,-1.04108 -5.20894,0 l -11.458966,6.77145 -1.56251,-1.5625 6.77145,-11.45897 c 1.04108,-1.56251 1.04108,-3.64645 0,-5.208951 -1.5625,-2.603581 -2.60358,-4.687517 -3.12501,-7.291097 -0.52143,-2.083936 -2.08393,-3.125011 -3.64644,-3.646442 l -13.53933,-3.6447 z"
       id="path1641"
       style="fill:#0089a1;fill-opacity:1;stroke-width:0.44643" />
  </g>
</svg>
