<?xml version="1.0" encoding="UTF-8" standalone="no"?>
<svg
   width="250"
   height="250"
   version="1.1"
   viewBox="0 0 187.5 187.5"
   id="svg3843"
   sodipodi:docname="noun-compass-1941245.svg"
   xmlns:inkscape="http://www.inkscape.org/namespaces/inkscape"
   xmlns:sodipodi="http://sodipodi.sourceforge.net/DTD/sodipodi-0.dtd"
   xmlns="http://www.w3.org/2000/svg"
   xmlns:svg="http://www.w3.org/2000/svg">
  <sodipodi:namedview
     id="namedview3845"
     pagecolor="#505050"
     bordercolor="#ffffff"
     borderopacity="1"
     inkscape:showpageshadow="0"
     inkscape:pageopacity="0"
     inkscape:pagecheckerboard="1"
     inkscape:deskcolor="#505050"
     inkscape:document-units="px"
     showgrid="false" />
  <defs
     id="defs3755" />
  <g
     id="g3841">
    <g
       id="g4130"
       transform="matrix(0.35244361,0,0,0.35244361,-29.605264,-4.9342108)"
       style="fill:#0089a1;fill-opacity:1">
      <path
         d="M 350,14 C 203.28,14 84,133.28 84,280 84,426.72 203.28,546 350,546 496.72,546 616,426.72 616,280 616,133.28 496.72,14 350,14 Z m 0,504 C 218.96,518 112,411.6 112,280 112,148.4 218.96,42 350,42 481.04,42 588,148.4 588,280 588,411.6 481.04,518 350,518 Z"
         id="path3757"
         style="fill:#0089a1;fill-opacity:1" />
      <path
         d="M 544.32,261.52 430.64,232.961 453.601,194.32 c 6.7188,-11.762 -6.1602,-24.641 -17.922,-17.922 l -38.641,22.961 -28.559,-113.68 c -2.2383,-8.3984 -9.5195,-14 -18.48,-14 -8.3984,0 -16.238,5.6016 -18.48,14 l -28.559,113.68 -38.641,-22.961 c -11.762,-7.2812 -24.641,6.1602 -17.922,17.922 l 22.961,38.641 -113.68,28.559 c -8.3984,2.2383 -14,9.5195 -14,18.48 0,8.3984 5.6016,16.238 14,18.48 l 113.68,28.559 -22.961,38.641 c -6.7188,11.762 6.1602,24.641 17.922,17.922 l 38.641,-22.961 28.559,113.68 c 2.2383,8.3984 9.5195,14 18.48,14 8.3984,0 16.238,-5.6016 18.48,-14 l 28.559,-113.68 38.641,22.961 c 11.762,6.7188 24.641,-6.1602 17.922,-17.922 L 430.64,327.039 544.32,298.48 c 8.3984,-2.2383 14,-9.5195 14,-18.48 0,-8.3984 -5.6016,-16.238 -14,-18.48 z M 391.44,308 c -6.7188,1.6797 -11.762,6.7188 -13.441,13.441 l -28,109.76 -28,-109.76 C 320.3193,314.7222 315.2802,309.679 308.558,308 l -109.76,-27.996 109.76,-28 c 6.7188,-1.6797 11.762,-6.7188 13.441,-13.441 l 27.996,-109.76 28,109.76 c 1.6797,6.7188 6.7188,11.762 13.441,13.441 L 501.196,280 Z"
         id="path3759"
         style="fill:#0089a1;fill-opacity:1" />
      <path
         d="m 377.44,280 c 0,15.156 -12.285,27.441 -27.441,27.441 -15.156,0 -27.441,-12.285 -27.441,-27.441 0,-15.156 12.285,-27.441 27.441,-27.441 15.156,0 27.441,12.285 27.441,27.441"
         id="path3761"
         style="fill:#0089a1;fill-opacity:1" />
    </g>
  </g>
</svg>
