<?xml version="1.0" encoding="UTF-8" standalone="no"?>
<svg
   width="250.0009"
   height="250"
   version="1.1"
   viewBox="0 0 187.50068 187.5"
   id="svg6277"
   sodipodi:docname="noun-teamwork-2612381.svg"
   xmlns:inkscape="http://www.inkscape.org/namespaces/inkscape"
   xmlns:sodipodi="http://sodipodi.sourceforge.net/DTD/sodipodi-0.dtd"
   xmlns="http://www.w3.org/2000/svg"
   xmlns:svg="http://www.w3.org/2000/svg">
  <sodipodi:namedview
     id="namedview6279"
     pagecolor="#505050"
     bordercolor="#ffffff"
     borderopacity="1"
     inkscape:showpageshadow="0"
     inkscape:pageopacity="0"
     inkscape:pagecheckerboard="1"
     inkscape:deskcolor="#505050"
     inkscape:document-units="px"
     showgrid="false" />
  <defs
     id="defs6171" />
  <g
     id="g6275"
     transform="matrix(0.33481904,0,0,0.33481904,-23.435994,0)"
     style="fill:#0089a1;fill-opacity:1"
     inkscape:export-filename="../61be15f3/synergy.avg.svg"
     inkscape:export-xdpi="96"
     inkscape:export-ydpi="96">
    <path
       d="m 196.27,278.9 c 0,40.77 16.195,79.871 45.027,108.7 28.828,28.828 67.93,45.027 108.7,45.027 40.77,0 79.871,-16.199 108.7,-45.027 28.832,-28.828 45.027,-67.93 45.027,-108.7 0,-40.77 -16.195,-79.871 -45.027,-108.7 -28.828,-28.832 -67.93,-45.027 -108.7,-45.027 -40.758,0.0469 -79.828,16.258 -108.65,45.078 -28.82,28.816 -45.031,67.891 -45.078,108.65 z m 289.88,0 c 0,36.109 -14.344,70.742 -39.879,96.277 -25.535,25.535 -60.168,39.879 -96.277,39.879 -36.109,0 -70.742,-14.344 -96.277,-39.879 -25.535,-25.535 -39.879,-60.168 -39.879,-96.277 0,-36.113 14.344,-70.742 39.879,-96.277 25.535,-25.535 60.168,-39.879 96.277,-39.879 36.098,0.0391 70.707,14.398 96.23,39.922 25.527,25.527 39.887,60.137 39.926,96.234 z"
       id="path6173"
       style="fill:#0089a1;fill-opacity:1" />
    <path
       d="m 318.54,202.67 -0.20703,0.0859 c -4.6875,-4.3125 -10.832,-6.6875 -17.203,-6.6523 -7.2383,0.0586 -14.164,2.957 -19.277,8.0781 l -6.5625,6.5664 c -4.8828,4.7344 -7.7578,11.164 -8.0273,17.961 -0.2695,6.797 2.0859,13.438 6.5781,18.543 l -0.0781,0.19141 h -0.004 c -6.7891,0.42188 -13.156,3.4492 -17.77,8.4492 -4.6172,4.9961 -7.1289,11.582 -7.0117,18.387 v 9.25 c -0.11719,6.8047 2.3945,13.391 7.0117,18.391 4.6133,5 10.98,8.0234 17.773,8.4492 l 0.082,0.19531 h -0.004 c -4.4922,5.1016 -6.8516,11.738 -6.582,18.531 0.26953,6.7969 3.1406,13.227 8.0234,17.961 l 6.543,6.5547 0.004,-0.004 c 5.1211,5.1289 12.051,8.0352 19.297,8.0938 6.3711,0.0391 12.52,-2.3398 17.207,-6.6523 l 0.20703,0.0859 c 0.42188,6.793 3.4453,13.156 8.4414,17.773 4.9961,4.617 11.582,7.1289 18.383,7.0156 h 9.2734 c 6.8008,0.11328 13.383,-2.3984 18.379,-7.0156 4.9961,-4.6172 8.0156,-10.98 8.4375,-17.77 l 0.20703,-0.0859 c 4.6875,4.3125 10.836,6.6875 17.207,6.6484 7.2344,-0.0547 14.156,-2.9531 19.27,-8.0742 l 6.5664,-6.5664 v 0.004 c 5.1406,-5.1172 8.0508,-12.059 8.1016,-19.309 0.0352,-6.3633 -2.3438,-12.5 -6.6523,-17.184 l 0.0859,-0.20703 v 0.004 c 6.7891,-0.42578 13.156,-3.4531 17.77,-8.4531 4.6172,-5 7.125,-11.586 7.0078,-18.387 v -9.25 c 0.11719,-6.8008 -2.3945,-13.387 -7.0078,-18.387 -4.6133,-4.9961 -10.98,-8.0234 -17.77,-8.4492 l -0.0859,-0.20312 h 0.004 c 4.6523,-5.1016 7.0352,-11.871 6.6055,-18.766 -0.42578,-6.6953 -3.293,-13.004 -8.0586,-17.73 l -6.5625,-6.5508 c -5.1094,-5.1289 -12.035,-8.0352 -19.277,-8.0898 -6.3672,-0.0352 -12.516,2.3398 -17.203,6.6523 l -0.20703,-0.0859 c -0.42188,-6.7891 -3.4453,-13.152 -8.4375,-17.77 -4.9961,-4.6172 -11.578,-7.1289 -18.379,-7.0156 h -9.2734 c -6.8008,-0.11328 -13.383,2.3984 -18.383,7.0117 -4.9961,4.6172 -8.0195,10.984 -8.4414,17.773 z m 45.367,1.0391 v 11.805 c 7.4883,1.6367 14.621,4.5977 21.07,8.7422 l 8.3711,-8.3711 c 1.4688,-1.4453 3.457,-2.2422 5.5156,-2.2109 2.5859,0.0352 5.0547,1.0977 6.8633,2.9492 l 6.5547,6.5469 -0.004,-0.004 c 3.625,3.2266 3.9531,8.7734 0.73438,12.402 l -8.3516,8.3516 c 4.1367,6.4492 7.0938,13.586 8.7344,21.07 h 11.809 c 4.8359,0.29688 8.5234,4.4492 8.2422,9.2891 v 9.25 c 0.28125,4.8398 -3.4062,8.9922 -8.2422,9.293 h -11.809 c -1.6406,7.4844 -4.5977,14.617 -8.7344,21.066 l 8.3477,8.3594 h 0.004 c 3.2188,3.625 2.8906,9.1719 -0.73438,12.391 l -6.5547,6.5547 h 0.004 c -1.8086,1.8477 -4.2773,2.9023 -6.8594,2.9375 -2.0625,0.0312 -4.0508,-0.76562 -5.5195,-2.2109 l -8.3711,-8.3555 c -6.4531,4.1289 -13.586,7.0859 -21.07,8.7305 v 11.805 c -0.29297,4.832 -4.4336,8.5234 -9.2695,8.2539 h -9.2734 c -4.8359,0.26953 -8.9805,-3.418 -9.2773,-8.2539 v -11.805 c -7.4844,-1.6445 -14.621,-4.6016 -21.078,-8.7305 l -8.3633,8.3555 c -1.4688,1.4453 -3.457,2.2422 -5.5195,2.2109 -2.5859,-0.0351 -5.0547,-1.0938 -6.8672,-2.9375 l -6.543,-6.5547 c -3.6094,-3.2227 -3.9414,-8.7578 -0.74609,-12.391 l 8.375,-8.3594 c -4.1406,-6.4492 -7.1016,-13.582 -8.7383,-21.066 h -11.816 c -4.8359,-0.30469 -8.5156,-4.457 -8.2422,-9.293 v -9.25 c -0.27344,-4.8359 3.4102,-8.9844 8.2422,-9.2891 h 11.816 c 1.6367,-7.4883 4.5977,-14.621 8.7383,-21.07 l -8.375,-8.3516 c -3.1953,-3.6367 -2.8633,-9.1719 0.74609,-12.402 l 6.543,-6.543 c 1.8125,-1.8516 4.2812,-2.9102 6.8711,-2.9492 2.0586,-0.0312 4.0469,0.76562 5.5156,2.2109 l 8.3633,8.3711 c 6.4531,-4.1406 13.59,-7.1016 21.078,-8.7422 v -11.809 c 0.29688,-4.832 4.4414,-8.5234 9.2773,-8.2539 h 9.2734 c 4.8359,-0.26562 8.9766,3.4219 9.2695,8.2539 z"
       id="path6175"
       style="fill:#0089a1;fill-opacity:1" />
    <path
       d="m 310.47,278.9 c 0,10.484 4.1641,20.539 11.578,27.953 7.4102,7.4141 17.465,11.578 27.949,11.578 10.484,0.004 20.539,-4.1602 27.953,-11.574 7.4141,-7.4141 11.578,-17.469 11.582,-27.953 0,-10.484 -4.1641,-20.539 -11.578,-27.953 -7.4141,-7.4102 -17.469,-11.578 -27.953,-11.578 -10.48,0.0156 -20.527,4.1836 -27.938,11.594 -7.4102,7.4062 -11.578,17.453 -11.594,27.934 z m 39.531,-21.957 c 5.8242,0 11.41,2.3125 15.527,6.4336 4.1211,4.1172 6.4336,9.7031 6.4336,15.527 0,5.8242 -2.3164,11.41 -6.4336,15.531 -4.1211,4.1172 -9.707,6.4297 -15.531,6.4297 -5.8242,0 -11.41,-2.3164 -15.527,-6.4336 -4.1172,-4.1211 -6.4297,-9.707 -6.4297,-15.531 0.008,-5.8242 2.3242,-11.402 6.4414,-15.52 4.1172,-4.1172 9.6992,-6.4336 15.52,-6.4375 z"
       id="path6177"
       style="fill:#0089a1;fill-opacity:1" />
    <path
       d="m 570.8,220.51 c 4.9883,-1.3047 10.121,-1.9766 15.277,-1.9961 0.80469,0 1.582,0.0898 2.3789,0.12109 v -0.004 c -10.906,-42.793 -33.094,-81.875 -64.25,-113.18 -31.156,-31.304996 -70.137,-53.667996 -112.88,-64.772996 0.0547,1.0781 0.16406,2.1445 0.16406,3.2383 v 0.0039 c -0.0156,4.9062 -0.625,9.7891 -1.8086,14.551 38.68,10.559 73.914,31.082 102.19,59.511996 28.273,28.434 48.594,63.785 58.934,102.52 z"
       id="path6179"
       style="fill:#0089a1;fill-opacity:1" />
    <path
       d="m 129.2,220.51 c 10.34,-38.738 30.66,-74.09 58.934,-102.52 28.273,-28.434 63.508,-48.953 102.19,-59.512 -1.1836,-4.7617 -1.793,-9.6445 -1.8086,-14.551 0,-1.0938 0.10938,-2.1602 0.16406,-3.2383 v -0.0039 c -42.746,11.105 -81.727,33.473 -112.88,64.773 -31.153,31.3 -53.344,70.383 -64.25,113.18 0.79688,-0.0312 1.5742,-0.12109 2.3789,-0.12109 v 0.004 c 5.1562,0.0195 10.289,0.69141 15.277,1.9961 z"
       id="path6181"
       style="fill:#0089a1;fill-opacity:1" />
    <path
       d="m 350,87.844 c 11.648,0 22.82,-4.6289 31.059,-12.863 8.2344,-8.2383 12.863,-19.41 12.863,-31.059 0,-11.649 -4.6289,-22.82 -12.863,-31.059 C 372.8207,4.6286 361.649,0 350,0 c -11.649,0 -22.82,4.6289 -31.059,12.863 -8.2344,8.2383 -12.863,19.41 -12.863,31.059 0.0117,11.645 4.6445,22.809 12.879,31.043 8.2345,8.234 19.398,12.863 31.043,12.879 z m 0,-70.273 c 6.9883,0 13.691,2.7734 18.633,7.7188 4.9453,4.9414 7.7188,11.645 7.7188,18.633 0,6.988 -2.7734,13.691 -7.7188,18.633 -4.9414,4.9453 -11.645,7.7188 -18.633,7.7188 -6.988,0 -13.691,-2.7734 -18.633,-7.7188 -4.9453,-4.9414 -7.7188,-11.645 -7.7188,-18.633 0.008,-6.9883 2.7852,-13.688 7.7266,-18.625 4.9414,-4.9414 11.637,-7.7188 18.625,-7.7266 z"
       id="path6183"
       style="fill:#0089a1;fill-opacity:1" />
    <path
       d="m 350,472.16 c -11.648,0 -22.82,4.6289 -31.059,12.863 -8.2344,8.2383 -12.863,19.41 -12.863,31.059 0,11.649 4.6289,22.82 12.863,31.059 8.2383,8.2344 19.41,12.863 31.059,12.863 11.649,0 22.82,-4.6289 31.059,-12.863 8.2344,-8.2383 12.863,-19.41 12.863,-31.059 -0.0117,-11.645 -4.6445,-22.809 -12.879,-31.043 C 372.8085,476.805 361.645,472.176 350,472.16 Z m 0,70.273 c -6.9883,0 -13.691,-2.7734 -18.633,-7.7188 -4.9453,-4.9414 -7.7188,-11.645 -7.7188,-18.633 0,-6.988 2.7734,-13.691 7.7188,-18.633 4.9414,-4.9414 11.645,-7.7188 18.633,-7.7188 6.988,0 13.691,2.7773 18.633,7.7188 4.9453,4.9414 7.7188,11.645 7.7188,18.633 -0.008,6.9883 -2.7852,13.688 -7.7266,18.625 -4.9414,4.9414 -11.637,7.7188 -18.625,7.7266 z"
       id="path6185"
       style="fill:#0089a1;fill-opacity:1" />
    <path
       d="m 586.08,236.08 c -11.648,0 -22.82,4.6289 -31.059,12.863 -8.2344,8.2383 -12.863,19.41 -12.863,31.059 0,11.649 4.6289,22.82 12.863,31.059 8.2383,8.2344 19.41,12.863 31.059,12.863 11.649,0 22.82,-4.6289 31.059,-12.863 8.2344,-8.2383 12.863,-19.41 12.863,-31.059 -0.0117,-11.645 -4.6445,-22.809 -12.879,-31.043 -8.2345,-8.234 -19.398,-12.867 -31.043,-12.879 z m 0,70.273 c -6.9883,0 -13.691,-2.7734 -18.633,-7.7188 -4.9453,-4.9414 -7.7188,-11.645 -7.7188,-18.633 0,-6.988 2.7734,-13.691 7.7188,-18.633 4.9414,-4.9453 11.645,-7.7188 18.633,-7.7188 6.988,0 13.691,2.7734 18.633,7.7188 4.9453,4.9414 7.7188,11.645 7.7188,18.633 -0.008,6.9883 -2.7852,13.684 -7.7266,18.625 -4.9375,4.9414 -11.637,7.7188 -18.625,7.7266 z"
       id="path6187"
       style="fill:#0089a1;fill-opacity:1" />
    <path
       d="m 157.84,280 c 0,-11.648 -4.6289,-22.82 -12.863,-31.059 -8.2383,-8.2344 -19.41,-12.863 -31.059,-12.863 -11.649,0 -22.82,4.6289 -31.059,12.863 -8.2344,8.2383 -12.863,19.41 -12.863,31.059 0,11.649 4.6289,22.82 12.863,31.059 8.2383,8.2344 19.41,12.863 31.059,12.863 11.645,-0.0117 22.809,-4.6445 31.043,-12.879 8.234,-8.2345 12.863,-19.398 12.879,-31.043 z m -70.273,0 c 0,-6.9883 2.7734,-13.691 7.7188,-18.633 4.9414,-4.9453 11.645,-7.7188 18.633,-7.7188 6.988,0 13.691,2.7734 18.633,7.7188 4.9453,4.9414 7.7188,11.645 7.7188,18.633 0,6.988 -2.7734,13.691 -7.7188,18.633 -4.9414,4.9453 -11.645,7.7188 -18.633,7.7188 -6.9883,-0.008 -13.688,-2.7852 -18.625,-7.7266 -4.9414,-4.9414 -7.7188,-11.637 -7.7266,-18.625 z"
       id="path6189"
       style="fill:#0089a1;fill-opacity:1" />
    <path
       d="m 129.79,339.34 c -5.1719,1.4102 -10.504,2.1328 -15.863,2.1484 -0.61328,0 -1.2031,-0.0742 -1.8125,-0.0937 v 0.004 c 11.207,42.293 33.449,80.848 64.453,111.72 31.008,30.867 69.656,52.945 112,63.965 -0.004,-0.33594 -0.0508,-0.66406 -0.0508,-1.0039 0.0117,-5.6094 0.80078,-11.195 2.3359,-16.59 -38.445,-10.406 -73.516,-30.645 -101.76,-58.727 -28.242,-28.082 -48.68,-63.039 -59.305,-101.42 z"
       id="path6191"
       style="fill:#0089a1;fill-opacity:1" />
    <path
       d="m 570.21,339.34 c -10.625,38.383 -31.062,73.34 -59.305,101.42 -28.242,28.082 -63.312,48.32 -101.76,58.727 1.5352,5.3984 2.3242,10.98 2.3398,16.59 0,0.33984 -0.0469,0.66797 -0.0508,1.0039 h -0.004 c 42.344,-11.02 80.992,-33.098 112,-63.965 31.004,-30.871 53.246,-69.426 64.453,-111.72 -0.60938,0.0195 -1.1992,0.0937 -1.8125,0.0937 -5.3594,-0.0195 -10.691,-0.74219 -15.863,-2.1523 z"
       id="path6193"
       style="fill:#0089a1;fill-opacity:1" />
  </g>
</svg>
