<?xml version="1.0" encoding="UTF-8" standalone="no"?>
<svg
   width="249.99548"
   height="250"
   version="1.1"
   viewBox="0 0 187.49661 187.5"
   id="svg8708"
   xmlns="http://www.w3.org/2000/svg"
   xmlns:svg="http://www.w3.org/2000/svg">
  <defs
     id="defs8634" />
  <g
     id="g8706"
     transform="matrix(0.33802092,0,0,0.33802092,-24.658626,-0.5962351)"
     style="fill:#0089a1;fill-opacity:1">
    <path
       d="M 618.8,1.7695 H 81.2 c -4.125,1.7656 -6.4844,4.125 -8.25,8.25 v 537.6 c 1.7695,4.7148 4.7148,7.6641 9.4297,8.8438 h 535.83 c 4.7148,-1.1797 7.6641,-4.125 9.4297,-9.4297 v -535.84 c -1.1758,-4.7148 -4.7148,-7.6641 -8.8398,-9.4297 z m -14.738,531.7 H 95.942 v -508.12 h 508.12 z m -217.52,-279.41 c 4.7148,-5.3047 9.4297,-10.609 14.148,-15.914 5.8945,-6.4844 11.789,-13.559 17.684,-20.043 4.7148,-5.8945 10.02,-11.199 14.738,-16.504 8.2539,-10.02 17.094,-19.453 25.348,-29.473 5.3047,-5.8945 10.609,-12.379 15.914,-18.273 7.6641,-8.8438 14.738,-17.094 22.398,-25.348 3.5352,-4.125 4.7148,-8.8438 2.3594,-13.559 -1.7695,-4.125 -5.8945,-6.4844 -10.609,-6.4844 -1.7695,0.58984 -3.5352,0.58984 -2.9492,3.5352 -3.5352,3.5352 -7.0742,6.4844 -10.02,10.02 -6.4844,7.0742 -12.379,14.148 -18.863,21.223 -3.5352,3.5352 -7.0742,7.0742 -10.02,10.609 -6.4844,7.0742 -12.379,14.148 -18.863,21.223 -3.5352,3.5352 -7.0742,7.0742 -10.02,10.609 -6.4844,7.0742 -12.379,14.148 -18.863,21.223 -2.9492,3.5352 -6.4844,7.0742 -9.4297,10.609 -5.8945,6.4844 -11.789,13.559 -17.684,20.043 -4.7148,5.8945 -10.02,11.199 -14.738,16.504 -6.4844,7.0742 -12.969,14.738 -19.453,21.809 -2.9492,2.9492 -5.8945,5.8945 -8.8438,9.4297 -6.4844,7.0742 -12.379,14.148 -18.863,21.223 -3.5352,3.5352 -7.0742,7.0742 -10.02,10.609 -5.8945,6.4844 -12.379,13.559 -18.273,20.633 -4.125,5.3047 -8.8438,10.02 -13.559,15.328 -6.4844,7.0742 -12.969,14.738 -19.453,21.809 -4.125,5.3047 -8.8438,10.02 -12.969,14.738 -6.4883,7.0742 -12.383,13.559 -18.277,20.633 -4.7148,5.3047 -9.4297,10.609 -14.148,15.914 -7.6641,8.8438 -15.328,18.273 -23.578,27.117 -3.5352,3.5352 -6.4844,7.6641 -4.7148,12.969 1.7695,4.7148 4.7148,7.0742 9.4297,8.2539 4.125,1.1797 7.6641,-0.58984 10.609,-3.5352 3.5352,-4.125 7.0742,-8.2539 10.609,-12.379 2.9492,-3.5352 6.4844,-7.0742 9.4297,-10.609 6.4844,-7.0742 12.379,-14.148 18.863,-21.223 3.5352,-3.5352 7.0742,-7.0742 10.02,-10.609 5.8945,-6.4844 11.789,-13.559 17.684,-20.043 4.7148,-5.3047 9.4297,-10.609 14.148,-15.914 6.4844,-7.0742 12.969,-14.738 19.453,-21.809 4.125,-5.3047 8.8438,-10.02 12.969,-14.738 5.8945,-6.4844 11.789,-13.559 17.684,-20.043 4.7148,-5.8945 10.02,-11.199 14.738,-16.504 6.4844,-7.6641 12.969,-14.738 19.453,-22.398 2.9492,-3.5352 5.8945,-6.4844 8.8438,-10.02 5.8984,-7.082 11.793,-13.566 17.688,-20.641 z m -194.53,41.852 c 4.125,1.7695 10.02,0.58984 12.379,-2.3594 7.0742,-8.2539 14.738,-15.914 22.398,-24.168 4.7148,-5.3047 10.02,-11.199 15.328,-16.504 7.6641,-8.2539 15.328,-16.504 22.988,-24.758 5.3047,-5.8945 10.02,-11.199 15.328,-16.504 7.6641,-8.2539 15.328,-16.504 22.988,-24.758 5.3047,-5.8945 30.652,-33.012 38.316,-41.262 7.0742,-7.0742 13.559,-14.738 20.633,-21.809 3.5352,-3.5352 5.3047,-7.0742 4.125,-12.379 -1.1797,-3.5352 -3.5352,-6.4844 -7.6641,-7.6641 -4.125,-1.1797 -8.2539,-0.58984 -11.199,2.3594 l -159.16,170.95 c -2.3594,2.9492 -4.125,5.8945 -4.125,10.609 0,3.5312 2.3555,7.0703 7.6602,8.2461 z m 330.7,-5.3047 v -2.9492 c -2.9492,-9.4297 -13.559,-10.609 -19.453,-4.7148 -45.977,45.391 -91.367,91.371 -137.35,136.76 -0.58984,0.58984 -0.58984,0.58984 -1.1797,1.1797 -3.5352,4.7148 -3.5352,12.379 2.3594,16.504 5.3047,3.5352 11.199,2.9492 15.914,-1.7695 45.391,-45.391 90.777,-90.777 136.17,-136.17 2.3594,-2.3594 4.1289,-5.3047 3.5391,-8.8438 z"
       id="path8636"
       style="fill:#0089a1;fill-opacity:1" />
  </g>
</svg>
